<svg xmlns="http://www.w3.org/2000/svg" viewBox="0 0 654.95 406.9"><defs><style>.cls-1{isolation:isolate;}.cls-2{fill:#bfbdd6;}.cls-3{fill:#8c98d3;}.cls-4{fill:#b0bded;}.cls-5{fill:#727cc1;}.cls-6{fill:#e7e6ed;}.cls-7{fill:#e54c54;}.cls-8{fill:#f7db52;}.cls-9{fill:#4ba34f;}.cls-10{fill:#ccc;mix-blend-mode:color-burn;}.cls-11{fill:#fff;opacity:0.25;}.cls-12{opacity:0.75;mix-blend-mode:multiply;}.cls-13{fill:#bababa;}.cls-14{fill:#e8bf58;}.cls-15{fill:#f9f7f4;}.cls-16{fill:#ccc8c2;}.cls-17{fill:#d1d1d1;}.cls-18{fill:#fcd363;}.cls-19,.cls-21{fill:none;stroke:#fb3;stroke-miterlimit:10;}.cls-19{stroke-width:4px;}.cls-20{fill:#fb3;}.cls-21{stroke-width:5px;}</style></defs><title>SL</title><g class="cls-1"><g id="OBJECTS"><path class="cls-2" d="M676.16,216.45a134.81,134.81,0,0,0-17.45-29.63c-20.23-25.92-49.93-36.32-81.83-38.36-34.65-2.22-72.63,6.95-104.89-9.46-37.22-18.92-60-56.92-96.44-77.14-50.31-27.95-117.12-33.4-169.33-7.39A131.32,131.32,0,0,0,178,73.28c-38.95,34.24-27.13,84.35-32.89,129.91-6.34,50.14-54.22,85-70.19,131.63-22.08,64.52,51.54,99.66,104.65,106,49,5.89,95.65-14,143.84-18.9,47.52-4.81,95.07,2.57,141.83,10.57,43,7.36,88.25,16.94,130.68,1.44C677.71,404.1,709.54,293.71,676.16,216.45Z" transform="translate(-40.28 -37.65)"/><path class="cls-3" d="M121.14,227.1c-4.47-4.51-11.51-7.1-17.33-4.56-7.75,3.37-9.67,13.63-8.4,22,3.45,22.93,21.49,40.47,38.2,56.54s30.82,41,35.61,57.82l.52-.27q-17.28-58.31-39.38-115C128.06,237.68,125.6,231.61,121.14,227.1Z" transform="translate(-40.28 -37.65)"/><path class="cls-3" d="M121.84,226.39c-6.77-6.34-17.88-8.67-24-.19-6.47,9-3.65,21.93.14,31.31,10.22,25.34,34.42,40.21,49.89,61.8,8.65,12.07,16.2,25.54,20.4,39.84a1,1,0,0,0,1.47.6l.51-.27a1,1,0,0,0,.46-1.13q-10.57-35.62-22.92-70.68-6.09-17.3-12.63-34.43c-3.52-9.22-6.45-19.47-13.31-26.85-.87-.95-2.29.47-1.41,1.41,7.77,8.38,10.89,20.91,14.84,31.38q6.3,16.71,12.18,33.57,5.73,16.41,11.06,32.94c1,3.17,10.83,32,10.21,32.33l1.47.6C166.46,346,160.13,334,152.85,323c-8.21-12.37-18.47-22.22-28.82-32.74-10.82-11-21.42-23.34-25.94-38.4-2.1-7-3.31-15.16-.09-22,4.54-9.7,15.57-8.44,22.43-2C121.37,228.68,122.79,227.27,121.84,226.39Z" transform="translate(-40.28 -37.65)"/><path class="cls-4" d="M101.69,225.45a1181.38,1181.38,0,0,1,66.16,130c.51,1.18,2.24.16,1.73-1a1183.13,1183.13,0,0,0-66.16-130,1,1,0,0,0-1.73,1Z" transform="translate(-40.28 -37.65)"/><path class="cls-4" d="M112.74,225.59q-.36,8.31-.74,16.6c-.06,1.29,1.94,1.28,2,0q.38-8.3.74-16.6c.06-1.28-1.94-1.28-2,0Z" transform="translate(-40.28 -37.65)"/><path class="cls-4" d="M96.13,239a94.21,94.21,0,0,1,15.64,4.26c1.21.44,1.74-1.49.54-1.93A95,95,0,0,0,96.66,237c-1.26-.22-1.8,1.7-.53,1.93Z" transform="translate(-40.28 -37.65)"/><path class="cls-4" d="M122.18,235.26Q120.34,244,118,252.59a1,1,0,0,0,1.93.53q2.39-8.6,4.23-17.32c.26-1.26-1.67-1.8-1.93-.54Z" transform="translate(-40.28 -37.65)"/><path class="cls-4" d="M99.52,252.88l18.79,1.82c1.28.12,1.27-1.88,0-2l-18.79-1.82c-1.28-.12-1.27,1.88,0,2Z" transform="translate(-40.28 -37.65)"/><path class="cls-4" d="M129.25,250.5l-4.46,15.57a1,1,0,0,0,1.93.54q2.24-7.78,4.46-15.57a1,1,0,0,0-1.93-.54Z" transform="translate(-40.28 -37.65)"/><path class="cls-4" d="M107.58,264.78a54,54,0,0,1,17.18,1.36c1.26.31,1.79-1.62.54-1.93a55.92,55.92,0,0,0-17.72-1.43c-1.27.1-1.28,2.1,0,2Z" transform="translate(-40.28 -37.65)"/><path class="cls-4" d="M134.89,265.51q-.84,7.64-1.67,15.26c-.14,1.28,1.87,1.27,2,0q.84-7.63,1.67-15.26c.14-1.28-1.86-1.27-2,0Z" transform="translate(-40.28 -37.65)"/><path class="cls-4" d="M117,281.18a145.72,145.72,0,0,0,16.57,1.22,1,1,0,0,0,0-2A145.72,145.72,0,0,1,117,279.18c-1.27-.17-1.26,1.83,0,2Z" transform="translate(-40.28 -37.65)"/><path class="cls-4" d="M142.07,282.29q-1.53,4.88-2.65,9.87c-.28,1.25,1.65,1.78,1.93.53q1.11-5,2.65-9.87c.38-1.23-1.55-1.76-1.93-.53Z" transform="translate(-40.28 -37.65)"/><path class="cls-4" d="M128,291.88l11.65,2.28c1.26.24,1.8-1.68.53-1.93L128.49,290c-1.25-.24-1.79,1.69-.53,1.93Z" transform="translate(-40.28 -37.65)"/><path class="cls-4" d="M139,304.44l4.06.51a5.25,5.25,0,0,0,2.67,0c1.61-.69,2.35-3.47,3.08-4.88.58-1.15-1.15-2.16-1.73-1l-1.21,2.36c-.45.88-.49,1.46-1.46,1.67a10.65,10.65,0,0,1-2.71-.34l-2.7-.34c-1.28-.16-1.27,1.84,0,2Z" transform="translate(-40.28 -37.65)"/><path class="cls-3" d="M162.27,250.61c10.94,16.88,18.77,37.43,14,57l.57,1c4.49-12.84,1.41-27.12-3.56-39.78S161.45,244.16,158.11,231c-8.56-33.83,7-70.53-2.68-104.06-2.84-9.88-9.37-20.25-19.57-21.5-8-1-15.78,4.29-19.81,11.26s-5,15.29-5,23.34a123.46,123.46,0,0,0,16.19,61.52C137.23,219,151.33,233.73,162.27,250.61Z" transform="translate(-40.28 -37.65)"/><path class="cls-3" d="M161.41,251.12c6,9.45,11.1,19.61,13.64,30.58a59.53,59.53,0,0,1,1.56,16.61c-.18,3.42-2.36,7.72-.64,10.79a1,1,0,0,0,1.83-.23c9-28-12.19-52.35-18.72-78.17-6.94-27.44,1.77-55.61.51-83.34-.73-16.21-8.68-51.44-32.71-41.62-10.42,4.25-15.11,15.1-16.34,25.61-1.59,13.47.19,27.7,3.62,40.74A129.84,129.84,0,0,0,133,212.51c9,13.18,19.62,25.23,28.4,38.61.7,1.07,2.43.07,1.72-1-13.92-21.23-32.24-39.47-41.95-63.3a123.1,123.1,0,0,1-8.76-37c-1-12.41-1.22-27.67,8-37.29,4.56-4.76,11.34-7.48,17.85-5.61,6.06,1.74,10.37,7.11,13.14,12.49,5.69,11,6.49,24.43,6.27,36.62-.43,23.34-5.92,46.82-1.65,70.1,5.05,27.51,29.24,53,19.83,82.19l1.83-.24c-.74-1.31.33-4.16.52-5.56a53.08,53.08,0,0,0,.46-8.45,65.29,65.29,0,0,0-2.11-14.58c-2.7-10.51-7.62-20.28-13.44-29.39C162.44,249,160.71,250,161.41,251.12Z" transform="translate(-40.28 -37.65)"/><path class="cls-4" d="M130.31,104.78c-7.12,34,1.18,68.22,12.54,100.31,5.66,16,11.34,32.19,18.71,47.46,8.13,16.85,18.46,34.24,14.78,53.7-.24,1.25,1.69,1.79,1.93.53,3-15.77-2.86-30.63-9.7-44.57a525.25,525.25,0,0,1-21.24-50.61c-12.44-33.87-22.67-70.1-15.09-106.29.27-1.26-1.66-1.79-1.93-.53Z" transform="translate(-40.28 -37.65)"/><path class="cls-4" d="M148.22,114.77l-20.09,29c-.74,1.06,1,2.06,1.72,1l20.1-29c.73-1.06-1-2.06-1.73-1Z" transform="translate(-40.28 -37.65)"/><path class="cls-4" d="M154.13,132.74l-22.68,32.55c-.74,1.05,1,2.05,1.72,1l22.69-32.55c.74-1.06-1-2.06-1.73-1Z" transform="translate(-40.28 -37.65)"/><path class="cls-4" d="M156.92,158.91q-9.73,13.2-19.48,26.41c-.76,1,1,2,1.73,1l19.48-26.41c.76-1-1-2-1.73-1Z" transform="translate(-40.28 -37.65)"/><path class="cls-4" d="M153.13,186.92q-5.69,7.49-10.91,15.31c-.72,1.07,1,2.08,1.72,1q5.24-7.81,10.91-15.31c.78-1-.95-2-1.72-1Z" transform="translate(-40.28 -37.65)"/><path class="cls-4" d="M111.4,135.79a78.22,78.22,0,0,1,16.28,9.5c1,.78,2-.95,1-1.72a77.35,77.35,0,0,0-16.28-9.5c-1.17-.51-2.19,1.21-1,1.72Z" transform="translate(-40.28 -37.65)"/><path class="cls-4" d="M112.5,157.61a73,73,0,0,1,18.74,8.27c1.1.68,2.11-1,1-1.73A75.61,75.61,0,0,0,113,155.68a1,1,0,0,0-.54,1.93Z" transform="translate(-40.28 -37.65)"/><path class="cls-4" d="M117.76,179.26l18.68,7.52c1.19.48,1.71-1.45.53-1.92l-18.68-7.53c-1.19-.48-1.71,1.45-.53,1.93Z" transform="translate(-40.28 -37.65)"/><path class="cls-4" d="M126.11,200.82,142,203.23c1.26.19,1.81-1.74.54-1.93l-15.89-2.41c-1.25-.19-1.8,1.74-.53,1.93Z" transform="translate(-40.28 -37.65)"/><path class="cls-4" d="M139.64,217.37l9.34,1.88c1.26.25,1.8-1.67.53-1.93l-9.34-1.88c-1.26-.25-1.8,1.67-.53,1.93Z" transform="translate(-40.28 -37.65)"/><path class="cls-4" d="M152.81,210.42a23.1,23.1,0,0,1-4.69,7.14c-.89.93.52,2.34,1.42,1.41a25.44,25.44,0,0,0,5.19-8c.49-1.19-1.44-1.71-1.92-.53Z" transform="translate(-40.28 -37.65)"/><path class="cls-4" d="M117.35,118.29l10.34,5.51c1.14.6,2.15-1.12,1-1.73l-10.34-5.51c-1.13-.6-2.14,1.12-1,1.73Z" transform="translate(-40.28 -37.65)"/><path class="cls-4" d="M138.2,112.76a73.34,73.34,0,0,1-9.73,9.89c-1,.83.43,2.24,1.41,1.42a73.33,73.33,0,0,0,9.73-9.89c.81-1-.6-2.42-1.41-1.42Z" transform="translate(-40.28 -37.65)"/><path class="cls-3" d="M629.17,175.41c5.64-24.2,7.83-52.8-9.29-70.81-6.57-6.92-17-11.54-25.73-7.71-7.3,3.19-11.31,11.43-11.88,19.37s1.66,15.78,3.65,23.5c8.9,34.57,13,72.38-1.31,105.07-4.36,10-17.26,19.06-27.11,23.69,20.25-4.33,37.44-18.48,49-35.66S624.47,195.57,629.17,175.41Z" transform="translate(-40.28 -37.65)"/><path class="cls-3" d="M630.13,175.67c4-17.44,6.67-36.68.9-54-4.63-13.94-19-31.74-35.76-26.23-19.25,6.31-13.74,31.15-10.1,45.48,5.55,21.8,9.18,44.45,7.39,67-1,12.57-3.51,26.37-9.37,37.67-5.29,10.19-16.14,17.28-26.19,22.14-1.06.51-.3,2.07.77,1.83,43.63-9.91,63.09-54.43,72.36-93.82.3-1.25-1.63-1.78-1.92-.53-9.12,38.71-28,82.66-71,92.42l.78,1.83a74,74,0,0,0,19.82-13.59c6.08-6,9.18-13.25,11.71-21.32,5.88-18.76,6.48-38.79,4.32-58.21A252.2,252.2,0,0,0,589,148.05c-2.37-10.34-6.52-21-5.7-31.79.79-10.43,8-20.8,19.49-19.67,10.23,1,18.41,9.28,23.06,17.91,9.89,18.37,6.84,41.18,2.39,60.64C627.92,176.39,629.85,176.93,630.13,175.67Z" transform="translate(-40.28 -37.65)"/><path class="cls-4" d="M598.54,94.33c11.92,30.78,8.93,65.29,4.37,97.29-4.22,29.59-15.23,63.11-45.75,74.81-1.19.46-.67,2.39.53,1.93,29.88-11.45,42-43.3,46.61-72.58,5.2-33.3,8.61-69.87-3.84-102-.46-1.19-2.39-.67-1.92.53Z" transform="translate(-40.28 -37.65)"/><path class="cls-4" d="M587.28,108.21A44.17,44.17,0,0,1,604,116.07c1,.78,2-1,1-1.73a45.66,45.66,0,0,0-17.16-8.06c-1.25-.29-1.79,1.64-.53,1.93Z" transform="translate(-40.28 -37.65)"/><path class="cls-4" d="M616.13,102.7l-10.92,12.23c-.85,1,.56,2.37,1.42,1.41q5.46-6.11,10.91-12.23c.86-1-.55-2.37-1.41-1.41Z" transform="translate(-40.28 -37.65)"/><path class="cls-4" d="M588.23,125.25l10.93,6.34c2.43,1.41,5.26,3.94,8.17,3.92a1,1,0,0,0,0-2c-2.74,0-6.71-3.39-9.09-4.77l-9-5.22a1,1,0,0,0-1,1.73Z" transform="translate(-40.28 -37.65)"/><path class="cls-4" d="M625.9,119.69a137.88,137.88,0,0,1-18,14.69c-1,.73,0,2.46,1,1.73a140.11,140.11,0,0,0,18.4-15c.93-.9-.49-2.31-1.41-1.42Z" transform="translate(-40.28 -37.65)"/><path class="cls-4" d="M589.5,144.06c6.25.84,11.59,4.52,17,7.6a1,1,0,0,0,1-1.73c-5.51-3.16-11-6.93-17.43-7.8-1.26-.17-1.8,1.76-.53,1.93Z" transform="translate(-40.28 -37.65)"/><path class="cls-4" d="M625.82,138.67q-8.84,6-18.05,11.44a1,1,0,0,0,1,1.73q9.22-5.42,18.05-11.44c1.06-.73.06-2.46-1-1.73Z" transform="translate(-40.28 -37.65)"/><path class="cls-4" d="M592.71,160.68a124.41,124.41,0,0,0,13.15,6.75c1.16.51,2.18-1.21,1-1.73A121.62,121.62,0,0,1,593.72,159a1,1,0,0,0-1,1.73Z" transform="translate(-40.28 -37.65)"/><path class="cls-4" d="M623.39,157.05a136.86,136.86,0,0,1-16.28,9.16c-1.17.56-.15,2.28,1,1.73a136.32,136.32,0,0,0,16.28-9.17c1.07-.7.07-2.43-1-1.72Z" transform="translate(-40.28 -37.65)"/><path class="cls-4" d="M595.42,178.05l8.83,5.75c1.08.71,2.09-1,1-1.73l-8.83-5.74c-1.08-.71-2.08,1-1,1.72Z" transform="translate(-40.28 -37.65)"/><path class="cls-4" d="M605.77,184.17A102,102,0,0,1,620,176.1c1.16-.55.15-2.27-1-1.73a102,102,0,0,0-14.2,8.07c-1.06.72-.06,2.45,1,1.73Z" transform="translate(-40.28 -37.65)"/><path class="cls-4" d="M595.16,193.2a31.47,31.47,0,0,0,6.6,5.91c1.07.71,2.08-1,1-1.73a29.73,29.73,0,0,1-6.2-5.6c-.83-1-2.24.44-1.41,1.42Z" transform="translate(-40.28 -37.65)"/><path class="cls-4" d="M602.74,199.34l14.94-8.88a1,1,0,0,0-1-1.72l-14.94,8.87a1,1,0,0,0,1,1.73Z" transform="translate(-40.28 -37.65)"/><path class="cls-4" d="M601.29,214.64l10.76-6.22a1,1,0,0,0-1-1.72l-10.76,6.21a1,1,0,0,0,1,1.73Z" transform="translate(-40.28 -37.65)"/><path class="cls-4" d="M594.59,211.19l4.87,3.13c1.09.7,2.09-1,1-1.72l-4.87-3.14c-1.09-.7-2.09,1-1,1.73Z" transform="translate(-40.28 -37.65)"/><path class="cls-3" d="M676.19,193.75c-9.19-3.91-20,.12-27.89,6.18-12.65,9.65-20.87,23.94-27.51,38.39-15,32.56-25.3,67.39-17.57,102.37a199.13,199.13,0,0,1,54.48-80.75c10.32-9.22,22-17.8,27.9-30.29S688.92,199.17,676.19,193.75Z" transform="translate(-40.28 -37.65)"/><path class="cls-3" d="M676.46,192.79c-13.48-5.09-27.06,3.51-36.17,13-10.58,11-17.38,25-23.39,38.82-13.16,30.35-21.65,63.35-14.64,96.37.22,1,1.62.85,1.93,0,12.17-33.41,32.87-61.88,59.66-85.07C674.64,246.55,687,236,689.23,221c1.66-10.91-1.93-23.22-12.53-28.15-1.16-.54-2.18,1.18-1,1.72,13.41,6.24,14.42,24.16,8.34,36-7.22,14-21.37,23-32.44,33.68a201.71,201.71,0,0,0-49.33,76.18h1.93c-6.51-30.65.63-61.5,12.37-90,5.53-13.38,11.68-27,20.83-38.38,8.88-11,23.5-23.05,38.54-17.37C677.13,195.17,677.65,193.24,676.46,192.79Z" transform="translate(-40.28 -37.65)"/><path class="cls-4" d="M680.33,196.77c-48.39,31.17-70.3,87.23-78.23,142-.18,1.26,1.74,1.8,1.93.53,7.85-54.28,29.36-110,77.3-140.85,1.08-.7.08-2.43-1-1.73Z" transform="translate(-40.28 -37.65)"/><path class="cls-4" d="M663.57,193.26c-.06,3.42-.07,6.84,0,10.27a25.69,25.69,0,0,0,.14,5.12c.08.34.19,1.27.37.8l1.47-.6-.21-.1.36,1.37.07-.16c.5-1.17-1.22-2.19-1.73-1l-.07.16a1,1,0,0,0,.36,1.37l.21.1A1,1,0,0,0,666,210c.17-.43,0-.62,0-1-.08-1.56-.39-3.17-.42-4.78-.08-3.64-.07-7.27,0-10.91a1,1,0,0,0-2,0Z" transform="translate(-40.28 -37.65)"/><path class="cls-4" d="M665.1,210.85c2.54-.79,7.17,1.35,9.55,2.1,3.62,1.13,7.16,2.46,10.66,3.93,1.17.5,2.19-1.23,1-1.72a119.85,119.85,0,0,0-11.88-4.37c-2.86-.88-6.9-2.8-9.87-1.87-1.23.38-.71,2.31.53,1.93Z" transform="translate(-40.28 -37.65)"/><path class="cls-4" d="M648.18,201.63q.89,10.43,1,20.86a1,1,0,0,0,2,0q-.13-10.44-1-20.86c-.11-1.27-2.11-1.28-2,0Z" transform="translate(-40.28 -37.65)"/><path class="cls-4" d="M650.12,224.33a142.74,142.74,0,0,1,27.8,3c1.26.27,1.79-1.66.53-1.93a145.78,145.78,0,0,0-28.33-3.12,1,1,0,0,0,0,2Z" transform="translate(-40.28 -37.65)"/><path class="cls-4" d="M634.85,216.36a188.23,188.23,0,0,1,2.66,23.21c.07,1.28,2.07,1.29,2,0a193.37,193.37,0,0,0-2.73-23.75c-.23-1.26-2.15-.73-1.93.54Z" transform="translate(-40.28 -37.65)"/><path class="cls-4" d="M638.7,240.66c8.59,0,17.35,1.79,25.85,2.88,1.27.17,1.26-1.84,0-2-8.5-1.09-17.26-2.89-25.85-2.88a1,1,0,0,0,0,2Z" transform="translate(-40.28 -37.65)"/><path class="cls-4" d="M623.31,236.05a119.59,119.59,0,0,0,5,18.19c.43,1.2,2.37.68,1.93-.53a119.59,119.59,0,0,1-5-18.19c-.25-1.26-2.18-.73-1.93.53Z" transform="translate(-40.28 -37.65)"/><path class="cls-4" d="M629.25,255.77a112,112,0,0,1,21.33,1.3c1.26.2,1.8-1.73.53-1.93a114.25,114.25,0,0,0-21.86-1.37c-1.29,0-1.29,2,0,2Z" transform="translate(-40.28 -37.65)"/><path class="cls-4" d="M615.24,254.23,621.49,269c.5,1.18,2.22.16,1.73-1q-3.13-7.36-6.25-14.73c-.51-1.18-2.23-.17-1.73,1Z" transform="translate(-40.28 -37.65)"/><path class="cls-4" d="M622.43,269.54a61.34,61.34,0,0,1,17.21.84c1.26.24,1.8-1.69.53-1.93a63.22,63.22,0,0,0-17.74-.91c-1.28.12-1.29,2.12,0,2Z" transform="translate(-40.28 -37.65)"/><path class="cls-4" d="M609.32,271.34l5.61,13.7c.48,1.17,2.42.66,1.93-.53l-5.61-13.7c-.48-1.18-2.41-.66-1.93.53Z" transform="translate(-40.28 -37.65)"/><path class="cls-4" d="M615.58,286.15l15.21-1.29c1.27-.11,1.28-2.11,0-2l-15.21,1.29c-1.27.11-1.28,2.11,0,2Z" transform="translate(-40.28 -37.65)"/><path class="cls-4" d="M603.29,287.17l6.58,12.46c.61,1.14,2.33.13,1.73-1L605,286.16c-.6-1.14-2.32-.13-1.72,1Z" transform="translate(-40.28 -37.65)"/><path class="cls-4" d="M610.92,300.19,621.57,298c1.26-.26.73-2.19-.53-1.93l-10.65,2.19c-1.26.26-.73,2.19.53,1.93Z" transform="translate(-40.28 -37.65)"/><rect class="cls-5" x="124.43" y="93.71" width="417.67" height="257.71" rx="13.48"/><path class="cls-6" d="M560,159.72v201a6.26,6.26,0,0,1-6.26,6.26H193.35a6.26,6.26,0,0,1-6.26-6.26v-201a6.26,6.26,0,0,1,6.26-6.26H553.73a6,6,0,0,1,2.37.47A6.26,6.26,0,0,1,560,159.72Z" transform="translate(-40.28 -37.65)"/><rect class="cls-2" x="156.43" y="124.53" width="355.91" height="24.79" rx="12.39"/><circle class="cls-7" cx="454.63" cy="137.35" r="5.55"/><circle class="cls-8" cx="476.25" cy="137.35" r="5.55"/><circle class="cls-9" cx="496.52" cy="137.35" r="5.55"/><path class="cls-2" d="M345.64,244.49H218a17.61,17.61,0,0,1-17.56-17.56h0A17.61,17.61,0,0,1,218,209.38H345.64a17.61,17.61,0,0,1,17.56,17.55h0A17.61,17.61,0,0,1,345.64,244.49Z" transform="translate(-40.28 -37.65)"/><path class="cls-2" d="M345.64,290.77H218a17.61,17.61,0,0,1-17.56-17.56h0A17.61,17.61,0,0,1,218,255.66H345.64a17.61,17.61,0,0,1,17.56,17.55h0A17.61,17.61,0,0,1,345.64,290.77Z" transform="translate(-40.28 -37.65)"/><path class="cls-2" d="M345.64,341H218a17.61,17.61,0,0,1-17.56-17.56h0A17.61,17.61,0,0,1,218,305.93H345.64a17.61,17.61,0,0,1,17.56,17.55h0A17.61,17.61,0,0,1,345.64,341Z" transform="translate(-40.28 -37.65)"/><path class="cls-2" d="M541.94,227.73H394.32a7.2,7.2,0,0,1-7.18-7.18h0a7.2,7.2,0,0,1,7.18-7.18H541.94a7.2,7.2,0,0,1,7.18,7.18h0A7.2,7.2,0,0,1,541.94,227.73Z" transform="translate(-40.28 -37.65)"/><path class="cls-2" d="M541.94,250.87H394.32a7.2,7.2,0,0,1-7.18-7.18h0a7.2,7.2,0,0,1,7.18-7.18H541.94a7.2,7.2,0,0,1,7.18,7.18h0A7.2,7.2,0,0,1,541.94,250.87Z" transform="translate(-40.28 -37.65)"/><rect class="cls-2" x="348.02" y="224.15" width="159.16" height="84.5" rx="12"/><rect class="cls-5" x="262.81" y="348.63" width="140.92" height="32.21"/><rect class="cls-10" x="262.81" y="351.56" width="140.92" height="11.83"/><rect class="cls-5" x="208.96" y="377.82" width="248.62" height="10.07" rx="5.03"/><path class="cls-11" d="M556.1,153.93,187.09,351V310.38L480.93,153.46h72.8A6,6,0,0,1,556.1,153.93Z" transform="translate(-40.28 -37.65)"/><polygon class="cls-11" points="519.72 140.49 519.72 160.26 203.13 329.32 166.12 329.32 519.72 140.49"/><g class="cls-12"><path class="cls-13" d="M427.43,437.54H579.06l-25.69-99.31H417.46a12.17,12.17,0,0,0-11.78,15.22Z" transform="translate(-40.28 -37.65)"/><rect class="cls-13" x="392.88" y="245.52" width="128.27" height="148.59"/><rect class="cls-13" x="401.87" y="262.68" width="110.73" height="2.07"/><rect class="cls-13" x="401.87" y="272.39" width="110.73" height="2.07"/><rect class="cls-13" x="401.87" y="281.8" width="110.73" height="2.07"/><rect class="cls-13" x="401.87" y="291.05" width="110.73" height="2.07"/><rect class="cls-13" x="401.87" y="299.62" width="110.73" height="2.07"/><rect class="cls-13" x="407.78" y="235.77" width="128.27" height="148.59"/><rect class="cls-13" x="416.76" y="252.93" width="110.73" height="2.07"/><rect class="cls-13" x="416.76" y="262.64" width="110.73" height="2.07"/><rect class="cls-13" x="416.76" y="272.05" width="110.73" height="2.07"/><rect class="cls-13" x="416.76" y="281.3" width="110.73" height="2.07"/><rect class="cls-13" x="416.76" y="289.87" width="110.73" height="2.07"/><rect class="cls-13" x="411.18" y="229.82" width="128.27" height="148.59"/><rect class="cls-13" x="420.16" y="246.98" width="110.73" height="2.07"/><rect class="cls-13" x="420.16" y="256.69" width="110.73" height="2.07"/><rect class="cls-13" x="420.16" y="266.1" width="110.73" height="2.07"/><rect class="cls-13" x="420.16" y="275.35" width="110.73" height="2.07"/><rect class="cls-13" x="420.16" y="283.92" width="110.73" height="2.07"/><path class="cls-13" d="M586,319.87a9.26,9.26,0,0,0-9.17,7.36l-1,4.53H463.75a12.17,12.17,0,0,0-11.83,9.3l-23.43,96.48H580.13L605.51,333l3.83-12.87Z" transform="translate(-40.28 -37.65)"/></g><path class="cls-14" d="M431.68,433.29H583.31L557.62,334H421.71a12.16,12.16,0,0,0-11.78,15.21Z" transform="translate(-40.28 -37.65)"/><rect class="cls-15" x="397.13" y="241.27" width="128.27" height="148.59"/><rect class="cls-16" x="406.12" y="258.43" width="110.73" height="2.07"/><rect class="cls-16" x="406.12" y="268.14" width="110.73" height="2.07"/><rect class="cls-16" x="406.12" y="277.55" width="110.73" height="2.07"/><rect class="cls-16" x="406.12" y="286.8" width="110.73" height="2.07"/><rect class="cls-16" x="406.12" y="295.37" width="110.73" height="2.07"/><g class="cls-12"><rect class="cls-17" x="412.03" y="231.52" width="128.27" height="148.59"/><rect class="cls-17" x="421.01" y="248.68" width="110.73" height="2.07"/><rect class="cls-17" x="421.01" y="258.39" width="110.73" height="2.07"/><rect class="cls-17" x="421.01" y="267.8" width="110.73" height="2.07"/><rect class="cls-17" x="421.01" y="277.05" width="110.73" height="2.07"/><rect class="cls-17" x="421.01" y="285.62" width="110.73" height="2.07"/></g><rect class="cls-15" x="415.43" y="225.57" width="128.27" height="148.59"/><rect class="cls-16" x="424.41" y="242.73" width="110.73" height="2.07"/><rect class="cls-16" x="424.41" y="252.44" width="110.73" height="2.07"/><rect class="cls-16" x="424.41" y="261.85" width="110.73" height="2.07"/><rect class="cls-16" x="424.41" y="271.1" width="110.73" height="2.07"/><rect class="cls-16" x="424.41" y="279.67" width="110.73" height="2.07"/><path class="cls-18" d="M590.26,315.62a9.26,9.26,0,0,0-9.17,7.36l-1,4.53H468a12.17,12.17,0,0,0-11.83,9.3l-23.43,96.48H584.38l25.38-104.53,3.83-12.87Z" transform="translate(-40.28 -37.65)"/><path class="cls-3" d="M130.68,400.61c-5.35-2.7-11.62,5-16,2.05-2.27-1.55,1.63-7.55,2.87-9.53,4.07-6.55,9.8-12,13.1-19,2.34-5,4.36-18.8-5.36-16.65-6.41,1.42-9.37,8.9-14.55,12.26-5.52,3.58-7.43-.9-7.28-4.05.37-7.35,2.84-19.6,2.72-27-.12-6.54-.65-15.45-7.68-18.47C90,316.59,86.21,327.72,85.31,334c-1.77,12.52,3.72,24.13,3.34,36.44-.07,2.2-.31,5.62-1.88,7.36-4.07,4.5-8.29-9.18-9.07-11.37-1.92-5.41-4.8-12.36-11.79-11.39-11.39,1.59-2,21.05-.08,26.63,2.36,6.69,5.11,13.14,8,19.6,1.42,3.15,3.2,6.31,3.74,9.77.38,2.49-.15,6.18-3.39,5.15-6.51-2.07-7.26-12.33-14.12-14.05-9.87-2.48-5.37,12.45-3.51,16.73,3.52,8.11,10.3,14.57,14.71,22.17a28.36,28.36,0,0,0,2.58,3.48h32.53c.75-.93,1.6-1.9,1.81-2.1,4.61-4.62,6.72-7.32,10.08-10.66,5.63-5.59,14.71-12.19,16.67-20.29C135.93,407.43,134.63,402.61,130.68,400.61Z" transform="translate(-40.28 -37.65)"/><path class="cls-3" d="M661,442.57a374.58,374.58,0,0,1,26.69-26.48c2.33-2.09,4.73-4.21,6.24-6.95,2.53-4.59,1.39-10.27-3.82-12.15-5-1.8-25.67,8.42-22.09-3.15,2.31-7.46,9.75-11.42,13.65-17.85,2.68-4.42,3.27-13.22-3.65-13.49-5.83-.23-9.93,4.78-12.92,9.12-1.91,2.78-3.2,6.25-5.73,8.56-4,3.68-6.36.51-6.13-4.43q.56-11.91,0-23.85c-.25-5.72.61-13.41-2.55-18.46-5.59-8.9-11.88,1.17-13.13,7-2.75,12.83,2.78,25.63.89,38.26-.92,6.18-5.61,6.71-9,2.17-2.12-2.82-8.77-16.08-13.59-13-7.06,4.5,1,20.77,3.33,26,1.83,4.16,4.15,8.11,5.43,12.51,1.36,4.67-.22,10.19-5.57,6.14-3.13-2.37-4.74-7.38-8.68-8.66-6-1.95-7.11,4.55-5.79,8.88a53.81,53.81,0,0,0,10,18.61c3.62,4.37,8,8.22,10.73,13.18h35.09Z" transform="translate(-40.28 -37.65)"/><circle class="cls-19" cx="102.1" cy="203.7" r="8.07" transform="translate(-160.16 217.45) rotate(-76.42)"/><path class="cls-20" d="M111.73,185.26a4.92,4.92,0,1,1-4.92-4.92A4.92,4.92,0,0,1,111.73,185.26Z" transform="translate(-40.28 -37.65)"/><path class="cls-20" d="M125,211.26a4.54,4.54,0,1,1-4.54-4.53A4.53,4.53,0,0,1,125,211.26Z" transform="translate(-40.28 -37.65)"/><circle class="cls-19" cx="52.19" cy="383.74" r="9.91" transform="translate(-375.23 336.14) rotate(-80.78)"/><circle class="cls-20" cx="5.68" cy="363.66" r="3.68"/><circle class="cls-21" cx="660.46" cy="158.94" r="13.64" transform="translate(312.91 727.15) rotate(-76.64)"/><circle class="cls-20" cx="650.57" cy="130.53" r="9.74" transform="translate(333.19 695.79) rotate(-76.66)"/><path class="cls-20" d="M679.58,131.19a6.63,6.63,0,1,1-6.62-6.62A6.63,6.63,0,0,1,679.58,131.19Z" transform="translate(-40.28 -37.65)"/></g></g></svg>