<svg id="BACKGROUND" xmlns="http://www.w3.org/2000/svg" viewBox="0 0 453.33 500"><defs><style>.cls-1{fill:#1d262d;}.cls-2{opacity:0.42;}.cls-3{fill:#fff;}</style></defs><title>404m2</title><rect class="cls-1" x="2.81" width="450" height="500"/><g class="cls-2"><circle class="cls-3" cx="292.65" cy="233.81" r="0.82"/><circle class="cls-3" cx="197.39" cy="263.94" r="0.82"/><circle class="cls-3" cx="305.43" cy="309.02" r="0.82"/><circle class="cls-3" cx="329.37" cy="347.98" r="0.82"/><path class="cls-3" d="M429.28,292a.82.82,0,1,1-.82-.82A.82.82,0,0,1,429.28,292Z" transform="translate(-147.19)"/><circle class="cls-3" cx="373.2" cy="284.87" r="0.82"/><path class="cls-3" d="M407.66,211.51a.81.81,0,0,1-.81.81.82.82,0,0,1-.82-.81.82.82,0,0,1,.82-.82A.82.82,0,0,1,407.66,211.51Z" transform="translate(-147.19)"/><path class="cls-3" d="M355.29,226.67a.82.82,0,1,1-.82-.82A.82.82,0,0,1,355.29,226.67Z" transform="translate(-147.19)"/><circle class="cls-3" cx="180.94" cy="227.35" r="0.82"/><path class="cls-3" d="M314.48,273.15a.82.82,0,0,1-.82.82.82.82,0,0,1,0-1.64A.82.82,0,0,1,314.48,273.15Z" transform="translate(-147.19)"/><circle class="cls-3" cx="183.37" cy="298.3" r="0.82"/><path class="cls-3" d="M272.56,358.61a.82.82,0,1,1-.82-.81A.81.81,0,0,1,272.56,358.61Z" transform="translate(-147.19)"/><path class="cls-3" d="M278.46,342.72a.82.82,0,1,1-.82-.82A.82.82,0,0,1,278.46,342.72Z" transform="translate(-147.19)"/><path class="cls-3" d="M245.22,431.89a.82.82,0,0,1-.82.82.82.82,0,0,1-.81-.82.81.81,0,0,1,.81-.81A.82.82,0,0,1,245.22,431.89Z" transform="translate(-147.19)"/><path class="cls-3" d="M258.28,405.06a.82.82,0,0,1-.82.81.82.82,0,0,1,0-1.63A.82.82,0,0,1,258.28,405.06Z" transform="translate(-147.19)"/><circle class="cls-3" cx="119.59" cy="480.96" r="0.82"/><path class="cls-3" d="M238.13,498.59a.82.82,0,0,1-1.64,0,.82.82,0,0,1,1.64,0Z" transform="translate(-147.19)"/><path class="cls-3" d="M380.12,490.29a.81.81,0,0,1-.81.81.82.82,0,1,1,.81-.81Z" transform="translate(-147.19)"/><path class="cls-3" d="M434.55,483.79a.82.82,0,1,1-.81-.82A.81.81,0,0,1,434.55,483.79Z" transform="translate(-147.19)"/><path class="cls-3" d="M447,451.76a.82.82,0,0,1-1.64,0,.82.82,0,0,1,1.64,0Z" transform="translate(-147.19)"/><path class="cls-3" d="M388,444a.82.82,0,1,1-1.64,0,.82.82,0,0,1,1.64,0Z" transform="translate(-147.19)"/><path class="cls-3" d="M382.69,424.82a.82.82,0,0,1-.82.82.82.82,0,0,1-.81-.82.81.81,0,0,1,.81-.81A.82.82,0,0,1,382.69,424.82Z" transform="translate(-147.19)"/><path class="cls-3" d="M370.09,425.5a.82.82,0,0,1-1.64,0,.82.82,0,0,1,1.64,0Z" transform="translate(-147.19)"/><circle class="cls-3" cx="376.42" cy="435.27" r="0.82"/><circle class="cls-3" cx="342.36" cy="429.44" r="0.82"/><path class="cls-3" d="M526.46,403.14a.82.82,0,0,1-1.64,0,.82.82,0,1,1,1.64,0Z" transform="translate(-147.19)"/><circle class="cls-3" cx="387.73" cy="364.44" r="0.82"/><circle class="cls-3" cx="370.05" cy="351.94" r="0.82"/><circle class="cls-3" cx="377.58" cy="317.07" r="0.82"/><circle class="cls-3" cx="382.09" cy="317.08" r="0.82"/><circle class="cls-3" cx="284.04" cy="254.81" r="0.82"/><circle class="cls-3" cx="222.4" cy="281.08" r="0.82"/><circle class="cls-3" cx="264.74" cy="290.85" r="0.82"/><path class="cls-3" d="M267.39,291.58a.82.82,0,1,1-.82-.81A.82.82,0,0,1,267.39,291.58Z" transform="translate(-147.19)"/><circle class="cls-3" cx="94.47" cy="328.31" r="0.82"/><path class="cls-3" d="M232.66,355.91a.82.82,0,0,1-1.64,0,.82.82,0,0,1,1.64,0Z" transform="translate(-147.19)"/><path class="cls-3" d="M238.6,274.58a.82.82,0,1,1-.82-.82A.82.82,0,0,1,238.6,274.58Z" transform="translate(-147.19)"/><path class="cls-3" d="M243.25,211.1a.82.82,0,1,1-.81-.81A.81.81,0,0,1,243.25,211.1Z" transform="translate(-147.19)"/><circle class="cls-3" cx="117.59" cy="205.81" r="0.82"/><path class="cls-3" d="M371,201.7a.82.82,0,1,1-.82-.82A.82.82,0,0,1,371,201.7Z" transform="translate(-147.19)"/><path class="cls-3" d="M338.18,210.2a.82.82,0,0,1-.81.82.82.82,0,1,1,0-1.64A.82.82,0,0,1,338.18,210.2Z" transform="translate(-147.19)"/><circle class="cls-3" cx="285.35" cy="200.36" r="0.82"/><path class="cls-3" d="M424.77,225.94a.82.82,0,1,1-.82-.82A.82.82,0,0,1,424.77,225.94Z" transform="translate(-147.19)"/><circle class="cls-3" cx="261.59" cy="252.84" r="0.82"/><path class="cls-3" d="M353.31,284.38a.82.82,0,0,1-.81.82.82.82,0,0,1,0-1.64A.82.82,0,0,1,353.31,284.38Z" transform="translate(-147.19)"/><circle class="cls-3" cx="186.52" cy="295.97" r="0.82"/><circle class="cls-3" cx="158" cy="331.59" r="0.82"/><circle class="cls-3" cx="152.8" cy="348.75" r="0.82"/><circle class="cls-3" cx="158.05" cy="376.33" r="0.82"/><path class="cls-3" d="M314.6,397.33a.82.82,0,1,1-.81-.82A.82.82,0,0,1,314.6,397.33Z" transform="translate(-147.19)"/><circle class="cls-3" cx="211.66" cy="409.62" r="0.82"/><circle class="cls-3" cx="247.12" cy="414.88" r="0.82"/><path class="cls-3" d="M408.35,418.31a.81.81,0,0,1-.81.82.82.82,0,1,1,0-1.63A.81.81,0,0,1,408.35,418.31Z" transform="translate(-147.19)"/><circle class="cls-3" cx="301.03" cy="405.92" r="0.82"/><path class="cls-3" d="M451.62,381a.82.82,0,1,1-.82-.82A.81.81,0,0,1,451.62,381Z" transform="translate(-147.19)"/><circle class="cls-3" cx="294.86" cy="333.66" r="0.82"/><path class="cls-3" d="M431.64,324.38a.82.82,0,1,1-.82-.82A.82.82,0,0,1,431.64,324.38Z" transform="translate(-147.19)"/><circle class="cls-3" cx="283.81" cy="304.62" r="0.82"/><path class="cls-3" d="M326.37,312a.82.82,0,1,1-.81-.81A.81.81,0,0,1,326.37,312Z" transform="translate(-147.19)"/><path class="cls-3" d="M322.5,325.81a.82.82,0,0,1-.81.82.82.82,0,0,1-.82-.82.82.82,0,0,1,.82-.81A.81.81,0,0,1,322.5,325.81Z" transform="translate(-147.19)"/><path class="cls-3" d="M323.22,360.56a.82.82,0,1,1-.82-.82A.82.82,0,0,1,323.22,360.56Z" transform="translate(-147.19)"/><circle class="cls-3" cx="273.89" cy="396.67" r="0.82"/><path class="cls-3" d="M430.41,387.42a.82.82,0,1,1-.82-.82A.82.82,0,0,1,430.41,387.42Z" transform="translate(-147.19)"/><circle class="cls-3" cx="291.01" cy="381.46" r="0.82"/><path class="cls-3" d="M456.86,372.33a.82.82,0,0,1-.82.82.82.82,0,0,1-.81-.82.81.81,0,0,1,.81-.81A.82.82,0,0,1,456.86,372.33Z" transform="translate(-147.19)"/><path class="cls-3" d="M467.88,355.29a.82.82,0,0,1-.82.81.82.82,0,0,1,0-1.63A.82.82,0,0,1,467.88,355.29Z" transform="translate(-147.19)"/><circle class="cls-3" cx="324.01" cy="338.07" r="0.82"/><path class="cls-3" d="M473.5,328.07a.82.82,0,0,1-1.64,0,.82.82,0,0,1,1.64,0Z" transform="translate(-147.19)"/><path class="cls-3" d="M455.48,327.62a.82.82,0,0,1-.82.81.82.82,0,0,1,0-1.63A.82.82,0,0,1,455.48,327.62Z" transform="translate(-147.19)"/><circle class="cls-3" cx="315.31" cy="308.75" r="0.82"/><path class="cls-3" d="M465.94,310.53a.81.81,0,0,1-.81.81.82.82,0,1,1,.81-.81Z" transform="translate(-147.19)"/><path class="cls-3" d="M488.13,348a.82.82,0,1,1-.82-.82A.82.82,0,0,1,488.13,348Z" transform="translate(-147.19)"/><circle class="cls-3" cx="330.78" cy="365.84" r="0.82"/><path class="cls-3" d="M477.36,364.82a.82.82,0,0,1-.82.81.81.81,0,0,1-.81-.81.82.82,0,0,1,.81-.82A.82.82,0,0,1,477.36,364.82Z" transform="translate(-147.19)"/><circle class="cls-3" cx="304.98" cy="423.65" r="0.82"/></g><circle class="cls-3" cx="183.69" cy="256.89" r="0.82"/><path class="cls-3" d="M377,272.1a.82.82,0,0,1-1.64,0,.82.82,0,0,1,1.64,0Z" transform="translate(-147.19)"/><circle class="cls-3" cx="177.8" cy="290.43" r="0.82"/><path class="cls-3" d="M333.73,276.62a.82.82,0,0,1-1.64,0,.82.82,0,0,1,1.64,0Z" transform="translate(-147.19)"/><path class="cls-3" d="M424.11,297.59a.82.82,0,0,1-1.63,0,.82.82,0,1,1,1.63,0Z" transform="translate(-147.19)"/><circle class="cls-3" cx="175.25" cy="317.22" r="0.82"/><path class="cls-3" d="M320,346.6a.82.82,0,1,1-.82-.82A.82.82,0,0,1,320,346.6Z" transform="translate(-147.19)"/><path class="cls-3" d="M435.87,336.9a.82.82,0,1,1-.82-.82A.82.82,0,0,1,435.87,336.9Z" transform="translate(-147.19)"/><circle class="cls-3" cx="296.46" cy="313.93" r="0.82"/><path class="cls-3" d="M409.72,273.35a.82.82,0,0,1-.81.82.82.82,0,1,1,0-1.64A.82.82,0,0,1,409.72,273.35Z" transform="translate(-147.19)"/><circle class="cls-3" cx="276.81" cy="249.73" r="0.82"/><circle class="cls-3" cx="215.87" cy="240.46" r="0.82"/><path class="cls-3" d="M363.87,255.67a.82.82,0,0,1-1.64,0,.82.82,0,0,1,1.64,0Z" transform="translate(-147.19)"/><circle class="cls-3" cx="326.52" cy="359.08" r="0.82"/><path class="cls-3" d="M461.41,403.56a.82.82,0,1,1-.81-.82A.82.82,0,0,1,461.41,403.56Z" transform="translate(-147.19)"/><circle class="cls-3" cx="314.73" cy="436.98" r="0.82"/><path class="cls-3" d="M403.89,464.54a.82.82,0,0,1-.82.82.82.82,0,0,1-.81-.82.81.81,0,0,1,.81-.81A.82.82,0,0,1,403.89,464.54Z" transform="translate(-147.19)"/><circle class="cls-3" cx="230.86" cy="467.86" r="0.82"/><circle class="cls-3" cx="218.99" cy="446.18" r="0.82"/><circle class="cls-3" cx="246.74" cy="442.23" r="0.82"/><path class="cls-3" d="M389.5,427a.82.82,0,1,1-.81-.82A.82.82,0,0,1,389.5,427Z" transform="translate(-147.19)"/><circle class="cls-3" cx="229.49" cy="429.68" r="0.82"/><circle class="cls-3" cx="118.29" cy="401.62" r="0.82"/><circle class="cls-3" cx="136.67" cy="420" r="0.82"/><path class="cls-3" d="M340.28,401.62a.82.82,0,0,1-.82.82.82.82,0,0,1,0-1.64A.82.82,0,0,1,340.28,401.62Z" transform="translate(-147.19)"/><circle class="cls-3" cx="170.69" cy="360.49" r="0.82"/><path class="cls-3" d="M280,359.07a.82.82,0,0,1-.82.82.82.82,0,0,1-.81-.82.81.81,0,0,1,.81-.81A.82.82,0,0,1,280,359.07Z" transform="translate(-147.19)"/><path class="cls-3" d="M214.22,199.12a.82.82,0,0,1-.81.82.82.82,0,1,1,0-1.64A.82.82,0,0,1,214.22,199.12Z" transform="translate(-147.19)"/><path class="cls-3" d="M259.54,214.33a.82.82,0,1,1-1.64,0,.82.82,0,0,1,1.64,0Z" transform="translate(-147.19)"/><circle class="cls-3" cx="60.33" cy="232.66" r="0.82"/><circle class="cls-3" cx="68.25" cy="218.85" r="0.82"/><path class="cls-3" d="M306.64,239.82a.81.81,0,0,1-.81.81.82.82,0,0,1-.82-.81.82.82,0,0,1,.82-.82A.82.82,0,0,1,306.64,239.82Z" transform="translate(-147.19)"/><circle class="cls-3" cx="57.78" cy="259.45" r="0.82"/><circle class="cls-3" cx="54.54" cy="288.83" r="0.82"/><path class="cls-3" d="M318.4,279.13a.82.82,0,0,1-.82.82.82.82,0,0,1-.81-.82.81.81,0,0,1,.81-.81A.82.82,0,0,1,318.4,279.13Z" transform="translate(-147.19)"/><path class="cls-3" d="M327,256.16a.82.82,0,1,1-.82-.82A.82.82,0,0,1,327,256.16Z" transform="translate(-147.19)"/><path class="cls-3" d="M292.26,215.58a.82.82,0,1,1-.82-.82A.82.82,0,0,1,292.26,215.58Z" transform="translate(-147.19)"/><path class="cls-3" d="M307.34,192a.82.82,0,0,1-.81.82.82.82,0,1,1,0-1.64A.82.82,0,0,1,307.34,192Z" transform="translate(-147.19)"/><path class="cls-3" d="M246.4,182.7a.81.81,0,0,1-.81.81.82.82,0,1,1,.81-.81Z" transform="translate(-147.19)"/><path class="cls-3" d="M246.4,197.9a.82.82,0,0,1-1.64,0,.82.82,0,0,1,1.64,0Z" transform="translate(-147.19)"/><circle class="cls-3" cx="209.05" cy="301.31" r="0.82"/><path class="cls-3" d="M343.94,345.79a.82.82,0,0,1-.81.82.82.82,0,0,1,0-1.64A.82.82,0,0,1,343.94,345.79Z" transform="translate(-147.19)"/><path class="cls-3" d="M345.26,379.21a.82.82,0,0,1-.82.81.81.81,0,0,1-.81-.81.82.82,0,0,1,.81-.82A.82.82,0,0,1,345.26,379.21Z" transform="translate(-147.19)"/><circle class="cls-3" cx="138.42" cy="406.77" r="0.82"/><circle class="cls-3" cx="113.39" cy="410.09" r="0.82"/><path class="cls-3" d="M249.52,388.41a.82.82,0,1,1-.81-.82A.82.82,0,0,1,249.52,388.41Z" transform="translate(-147.19)"/><path class="cls-3" d="M277.27,384.46a.82.82,0,0,1-.82.82.82.82,0,1,1,.82-.82Z" transform="translate(-147.19)"/><path class="cls-3" d="M272,369.22a.82.82,0,1,1-.81-.81A.81.81,0,0,1,272,369.22Z" transform="translate(-147.19)"/><path class="cls-3" d="M260,371.91a.81.81,0,0,1-.81.81.82.82,0,0,1-.82-.81.82.82,0,0,1,.82-.82A.82.82,0,0,1,260,371.91Z" transform="translate(-147.19)"/><path class="cls-3" d="M148.82,343.85a.82.82,0,0,1-.82.81.81.81,0,0,1-.81-.81A.82.82,0,0,1,148,343,.82.82,0,0,1,148.82,343.85Z" transform="translate(-147.19)"/><circle class="cls-3" cx="19.2" cy="362.23" r="0.82"/><path class="cls-3" d="M222.81,343.85a.82.82,0,0,1-.82.82.82.82,0,0,1,0-1.64A.82.82,0,0,1,222.81,343.85Z" transform="translate(-147.19)"/><circle class="cls-3" cx="53.22" cy="302.72" r="0.82"/><path class="cls-3" d="M162.54,301.3a.82.82,0,1,1-1.63,0,.82.82,0,0,1,1.63,0Z" transform="translate(-147.19)"/><path class="cls-3" d="M456.69,279.15a.82.82,0,1,1-.82-.81A.82.82,0,0,1,456.69,279.15Z" transform="translate(-147.19)"/><path class="cls-3" d="M502,294.37a.82.82,0,0,1-.82.81.81.81,0,0,1-.81-.81.82.82,0,0,1,.81-.82A.82.82,0,0,1,502,294.37Z" transform="translate(-147.19)"/><path class="cls-3" d="M450.8,312.69a.82.82,0,0,1-.82.82.82.82,0,0,1-.81-.82.81.81,0,0,1,.81-.81A.82.82,0,0,1,450.8,312.69Z" transform="translate(-147.19)"/><path class="cls-3" d="M458.72,298.88a.82.82,0,0,1-.82.82.82.82,0,0,1,0-1.64A.82.82,0,0,1,458.72,298.88Z" transform="translate(-147.19)"/><circle class="cls-3" cx="401.1" cy="319.85" r="0.82"/><path class="cls-3" d="M448.25,339.49a.82.82,0,0,1-1.64,0,.82.82,0,0,1,1.64,0Z" transform="translate(-147.19)"/><path class="cls-3" d="M445,368.87a.82.82,0,1,1-.82-.82A.82.82,0,0,1,445,368.87Z" transform="translate(-147.19)"/><path class="cls-3" d="M560.86,359.17a.82.82,0,1,1-.82-.82A.81.81,0,0,1,560.86,359.17Z" transform="translate(-147.19)"/><circle class="cls-3" cx="421.45" cy="336.19" r="0.82"/><circle class="cls-3" cx="386.72" cy="295.61" r="0.82"/><circle class="cls-3" cx="401.8" cy="271.99" r="0.82"/><path class="cls-3" d="M488.87,262.73a.82.82,0,1,1-.82-.82A.82.82,0,0,1,488.87,262.73Z" transform="translate(-147.19)"/><path class="cls-3" d="M488.86,277.94a.82.82,0,1,1-.82-.82A.82.82,0,0,1,488.86,277.94Z" transform="translate(-147.19)"/><circle class="cls-3" cx="451.51" cy="381.35" r="0.82"/><path class="cls-3" d="M586.41,425.82a.82.82,0,1,1-.82-.81A.82.82,0,0,1,586.41,425.82Z" transform="translate(-147.19)"/><circle class="cls-3" cx="439.72" cy="459.24" r="0.82"/><path class="cls-3" d="M528.88,486.81a.81.81,0,0,1-.81.81.82.82,0,0,1-.82-.81.82.82,0,0,1,.82-.82A.82.82,0,0,1,528.88,486.81Z" transform="translate(-147.19)"/><path class="cls-3" d="M503.86,490.12a.82.82,0,0,1-.82.82.82.82,0,0,1,0-1.64A.82.82,0,0,1,503.86,490.12Z" transform="translate(-147.19)"/><circle class="cls-3" cx="343.98" cy="468.44" r="0.82"/><circle class="cls-3" cx="371.73" cy="464.5" r="0.82"/><path class="cls-3" d="M514.5,449.25a.82.82,0,1,1-.82-.81A.82.82,0,0,1,514.5,449.25Z" transform="translate(-147.19)"/><circle class="cls-3" cx="354.48" cy="451.94" r="0.82"/><circle class="cls-3" cx="243.28" cy="423.88" r="0.82"/><path class="cls-3" d="M409.67,442.27a.82.82,0,0,1-1.64,0,.82.82,0,0,1,1.64,0Z" transform="translate(-147.19)"/><path class="cls-3" d="M465.27,423.88a.81.81,0,0,1-.81.82.82.82,0,1,1,0-1.63A.81.81,0,0,1,465.27,423.88Z" transform="translate(-147.19)"/><circle class="cls-3" cx="295.68" cy="382.76" r="0.82"/><path class="cls-3" d="M405,381.34a.81.81,0,0,1-.81.81.82.82,0,1,1,.81-.81Z" transform="translate(-147.19)"/><path class="cls-3" d="M340.19,288.72a.82.82,0,0,1-.82.81.82.82,0,0,1,0-1.63A.82.82,0,0,1,340.19,288.72Z" transform="translate(-147.19)"/><path class="cls-3" d="M357.43,273.41a.82.82,0,0,1-.82.82.82.82,0,0,1-.81-.82.81.81,0,0,1,.81-.81A.82.82,0,0,1,357.43,273.41Z" transform="translate(-147.19)"/><circle class="cls-3" cx="197.6" cy="282.6" r="0.82"/><path class="cls-3" d="M384.88,268.18a.81.81,0,0,1-.81.82.82.82,0,1,1,0-1.63A.81.81,0,0,1,384.88,268.18Z" transform="translate(-147.19)"/><path class="cls-3" d="M402.58,283.32a.82.82,0,1,1-.82-.81A.82.82,0,0,1,402.58,283.32Z" transform="translate(-147.19)"/><path class="cls-3" d="M337.69,247.85a.82.82,0,1,1-1.64,0,.82.82,0,0,1,1.64,0Z" transform="translate(-147.19)"/><circle class="cls-3" cx="151.71" cy="279.37" r="0.82"/><path class="cls-3" d="M453.42,465.62a.82.82,0,0,1-.82.82.82.82,0,0,1-.81-.82.81.81,0,0,1,.81-.81A.82.82,0,0,1,453.42,465.62Z" transform="translate(-147.19)"/><g class="cls-2"><circle class="cls-3" cx="293.65" cy="64.81" r="0.82"/><circle class="cls-3" cx="198.39" cy="94.94" r="0.82"/><circle class="cls-3" cx="306.43" cy="140.02" r="0.82"/><circle class="cls-3" cx="330.37" cy="178.98" r="0.82"/><path class="cls-3" d="M430.28,123a.82.82,0,1,1-.82-.82A.82.82,0,0,1,430.28,123Z" transform="translate(-147.19)"/><circle class="cls-3" cx="374.2" cy="115.87" r="0.82"/><path class="cls-3" d="M408.66,42.51a.81.81,0,0,1-.81.81.82.82,0,0,1-.82-.81.82.82,0,0,1,.82-.82A.82.82,0,0,1,408.66,42.51Z" transform="translate(-147.19)"/><path class="cls-3" d="M356.29,57.67a.82.82,0,1,1-.82-.82A.82.82,0,0,1,356.29,57.67Z" transform="translate(-147.19)"/><circle class="cls-3" cx="181.94" cy="58.35" r="0.82"/><path class="cls-3" d="M315.48,104.15a.82.82,0,0,1-.82.82.82.82,0,0,1,0-1.64A.82.82,0,0,1,315.48,104.15Z" transform="translate(-147.19)"/><circle class="cls-3" cx="184.37" cy="129.3" r="0.82"/><path class="cls-3" d="M273.56,189.61a.82.82,0,1,1-.82-.81A.81.81,0,0,1,273.56,189.61Z" transform="translate(-147.19)"/><path class="cls-3" d="M279.46,173.72a.82.82,0,1,1-.82-.82A.82.82,0,0,1,279.46,173.72Z" transform="translate(-147.19)"/><path class="cls-3" d="M246.22,262.89a.82.82,0,0,1-.82.82.82.82,0,0,1-.81-.82.81.81,0,0,1,.81-.81A.82.82,0,0,1,246.22,262.89Z" transform="translate(-147.19)"/><path class="cls-3" d="M259.28,236.06a.82.82,0,0,1-.82.81.82.82,0,0,1,0-1.63A.82.82,0,0,1,259.28,236.06Z" transform="translate(-147.19)"/><circle class="cls-3" cx="120.59" cy="311.96" r="0.82"/><path class="cls-3" d="M239.13,329.59a.82.82,0,0,1-1.64,0,.82.82,0,0,1,1.64,0Z" transform="translate(-147.19)"/><path class="cls-3" d="M381.12,321.29a.81.81,0,0,1-.81.81.82.82,0,1,1,.81-.81Z" transform="translate(-147.19)"/><path class="cls-3" d="M435.55,314.79a.82.82,0,1,1-.81-.82A.81.81,0,0,1,435.55,314.79Z" transform="translate(-147.19)"/><path class="cls-3" d="M448,282.76a.82.82,0,0,1-1.64,0,.82.82,0,0,1,1.64,0Z" transform="translate(-147.19)"/><path class="cls-3" d="M389,275a.82.82,0,1,1-1.64,0,.82.82,0,0,1,1.64,0Z" transform="translate(-147.19)"/><path class="cls-3" d="M383.69,255.82a.82.82,0,0,1-.82.82.82.82,0,0,1-.81-.82.81.81,0,0,1,.81-.81A.82.82,0,0,1,383.69,255.82Z" transform="translate(-147.19)"/><path class="cls-3" d="M371.09,256.5a.82.82,0,0,1-1.64,0,.82.82,0,0,1,1.64,0Z" transform="translate(-147.19)"/><circle class="cls-3" cx="377.42" cy="266.27" r="0.82"/><circle class="cls-3" cx="343.36" cy="260.44" r="0.82"/><path class="cls-3" d="M527.46,234.14a.82.82,0,0,1-1.64,0,.82.82,0,1,1,1.64,0Z" transform="translate(-147.19)"/><circle class="cls-3" cx="388.73" cy="195.44" r="0.82"/><circle class="cls-3" cx="371.05" cy="182.94" r="0.82"/><circle class="cls-3" cx="378.58" cy="148.07" r="0.82"/><circle class="cls-3" cx="383.09" cy="148.08" r="0.82"/><circle class="cls-3" cx="285.04" cy="85.81" r="0.82"/><circle class="cls-3" cx="223.4" cy="112.08" r="0.82"/><circle class="cls-3" cx="265.74" cy="121.85" r="0.82"/><path class="cls-3" d="M268.39,122.58a.82.82,0,1,1-.82-.81A.82.82,0,0,1,268.39,122.58Z" transform="translate(-147.19)"/><circle class="cls-3" cx="95.47" cy="159.31" r="0.82"/><path class="cls-3" d="M233.66,186.91a.82.82,0,0,1-1.64,0,.82.82,0,0,1,1.64,0Z" transform="translate(-147.19)"/><path class="cls-3" d="M239.6,105.58a.82.82,0,1,1-.82-.82A.82.82,0,0,1,239.6,105.58Z" transform="translate(-147.19)"/><path class="cls-3" d="M244.25,42.1a.82.82,0,1,1-.81-.81A.81.81,0,0,1,244.25,42.1Z" transform="translate(-147.19)"/><circle class="cls-3" cx="118.59" cy="36.81" r="0.82"/><path class="cls-3" d="M372,32.7a.82.82,0,1,1-.82-.82A.82.82,0,0,1,372,32.7Z" transform="translate(-147.19)"/><path class="cls-3" d="M339.18,41.2a.82.82,0,0,1-.81.82.82.82,0,1,1,0-1.64A.82.82,0,0,1,339.18,41.2Z" transform="translate(-147.19)"/><circle class="cls-3" cx="286.35" cy="31.36" r="0.82"/><path class="cls-3" d="M425.77,56.94a.82.82,0,1,1-.82-.82A.82.82,0,0,1,425.77,56.94Z" transform="translate(-147.19)"/><circle class="cls-3" cx="262.59" cy="83.84" r="0.82"/><path class="cls-3" d="M354.31,115.38a.82.82,0,0,1-.81.82.82.82,0,1,1,0-1.64A.82.82,0,0,1,354.31,115.38Z" transform="translate(-147.19)"/><circle class="cls-3" cx="187.52" cy="126.97" r="0.82"/><circle class="cls-3" cx="159" cy="162.59" r="0.82"/><circle class="cls-3" cx="153.8" cy="179.75" r="0.82"/><circle class="cls-3" cx="159.05" cy="207.33" r="0.82"/><path class="cls-3" d="M315.6,228.33a.82.82,0,1,1-.81-.82A.82.82,0,0,1,315.6,228.33Z" transform="translate(-147.19)"/><circle class="cls-3" cx="212.66" cy="240.62" r="0.82"/><circle class="cls-3" cx="248.12" cy="245.88" r="0.82"/><path class="cls-3" d="M409.35,249.31a.81.81,0,0,1-.81.82.82.82,0,1,1,0-1.63A.81.81,0,0,1,409.35,249.31Z" transform="translate(-147.19)"/><circle class="cls-3" cx="302.03" cy="236.92" r="0.82"/><path class="cls-3" d="M452.62,212a.82.82,0,1,1-.82-.82A.81.81,0,0,1,452.62,212Z" transform="translate(-147.19)"/><circle class="cls-3" cx="295.86" cy="164.66" r="0.82"/><path class="cls-3" d="M432.64,155.38a.82.82,0,1,1-.82-.82A.82.82,0,0,1,432.64,155.38Z" transform="translate(-147.19)"/><circle class="cls-3" cx="284.81" cy="135.62" r="0.82"/><path class="cls-3" d="M327.37,143a.82.82,0,1,1-.81-.81A.81.81,0,0,1,327.37,143Z" transform="translate(-147.19)"/><path class="cls-3" d="M323.5,156.81a.82.82,0,0,1-.81.82.82.82,0,0,1-.82-.82.82.82,0,0,1,.82-.81A.81.81,0,0,1,323.5,156.81Z" transform="translate(-147.19)"/><path class="cls-3" d="M324.22,191.56a.82.82,0,1,1-.82-.82A.82.82,0,0,1,324.22,191.56Z" transform="translate(-147.19)"/><circle class="cls-3" cx="274.89" cy="227.67" r="0.82"/><path class="cls-3" d="M431.41,218.42a.82.82,0,1,1-.82-.82A.82.82,0,0,1,431.41,218.42Z" transform="translate(-147.19)"/><circle class="cls-3" cx="292.01" cy="212.46" r="0.82"/><path class="cls-3" d="M457.86,203.33a.82.82,0,0,1-.82.82.82.82,0,0,1-.81-.82.81.81,0,0,1,.81-.81A.82.82,0,0,1,457.86,203.33Z" transform="translate(-147.19)"/><path class="cls-3" d="M468.88,186.29a.82.82,0,0,1-.82.81.82.82,0,0,1,0-1.63A.82.82,0,0,1,468.88,186.29Z" transform="translate(-147.19)"/><circle class="cls-3" cx="325.01" cy="169.07" r="0.82"/><path class="cls-3" d="M474.5,159.07a.82.82,0,0,1-1.64,0,.82.82,0,0,1,1.64,0Z" transform="translate(-147.19)"/><path class="cls-3" d="M456.48,158.62a.82.82,0,0,1-.82.81.82.82,0,0,1,0-1.63A.82.82,0,0,1,456.48,158.62Z" transform="translate(-147.19)"/><circle class="cls-3" cx="316.31" cy="139.75" r="0.82"/><path class="cls-3" d="M466.94,141.53a.81.81,0,0,1-.81.81.82.82,0,1,1,.81-.81Z" transform="translate(-147.19)"/><path class="cls-3" d="M489.13,179a.82.82,0,1,1-.82-.82A.82.82,0,0,1,489.13,179Z" transform="translate(-147.19)"/><circle class="cls-3" cx="331.78" cy="196.84" r="0.82"/><path class="cls-3" d="M478.36,195.82a.82.82,0,0,1-.82.81.81.81,0,0,1-.81-.81.82.82,0,0,1,.81-.82A.82.82,0,0,1,478.36,195.82Z" transform="translate(-147.19)"/><circle class="cls-3" cx="305.98" cy="254.65" r="0.82"/></g><circle class="cls-3" cx="184.69" cy="87.89" r="0.82"/><path class="cls-3" d="M378,103.1a.82.82,0,0,1-1.64,0,.82.82,0,0,1,1.64,0Z" transform="translate(-147.19)"/><circle class="cls-3" cx="178.8" cy="121.43" r="0.82"/><path class="cls-3" d="M334.73,107.62a.82.82,0,0,1-1.64,0,.82.82,0,1,1,1.64,0Z" transform="translate(-147.19)"/><path class="cls-3" d="M425.11,128.59a.82.82,0,0,1-1.63,0,.82.82,0,1,1,1.63,0Z" transform="translate(-147.19)"/><circle class="cls-3" cx="176.25" cy="148.22" r="0.82"/><path class="cls-3" d="M321,177.6a.82.82,0,1,1-.82-.82A.82.82,0,0,1,321,177.6Z" transform="translate(-147.19)"/><path class="cls-3" d="M436.87,167.9a.82.82,0,1,1-.82-.82A.82.82,0,0,1,436.87,167.9Z" transform="translate(-147.19)"/><circle class="cls-3" cx="297.46" cy="144.93" r="0.82"/><path class="cls-3" d="M410.72,104.35a.82.82,0,0,1-.81.82.82.82,0,0,1,0-1.64A.82.82,0,0,1,410.72,104.35Z" transform="translate(-147.19)"/><circle class="cls-3" cx="277.81" cy="80.73" r="0.82"/><circle class="cls-3" cx="216.87" cy="71.46" r="0.82"/><path class="cls-3" d="M364.87,86.67a.82.82,0,0,1-1.64,0,.82.82,0,0,1,1.64,0Z" transform="translate(-147.19)"/><circle class="cls-3" cx="327.52" cy="190.08" r="0.82"/><path class="cls-3" d="M462.41,234.56a.82.82,0,1,1-.81-.82A.82.82,0,0,1,462.41,234.56Z" transform="translate(-147.19)"/><circle class="cls-3" cx="315.73" cy="267.98" r="0.82"/><path class="cls-3" d="M404.89,295.54a.82.82,0,0,1-.82.82.82.82,0,0,1-.81-.82.81.81,0,0,1,.81-.81A.82.82,0,0,1,404.89,295.54Z" transform="translate(-147.19)"/><circle class="cls-3" cx="231.86" cy="298.86" r="0.82"/><circle class="cls-3" cx="219.99" cy="277.18" r="0.82"/><circle class="cls-3" cx="247.74" cy="273.23" r="0.82"/><path class="cls-3" d="M390.5,258a.82.82,0,1,1-.81-.82A.82.82,0,0,1,390.5,258Z" transform="translate(-147.19)"/><circle class="cls-3" cx="230.49" cy="260.68" r="0.82"/><circle class="cls-3" cx="119.29" cy="232.62" r="0.82"/><circle class="cls-3" cx="137.67" cy="251" r="0.82"/><path class="cls-3" d="M341.28,232.62a.82.82,0,0,1-.82.82.82.82,0,0,1,0-1.64A.82.82,0,0,1,341.28,232.62Z" transform="translate(-147.19)"/><circle class="cls-3" cx="171.69" cy="191.49" r="0.82"/><path class="cls-3" d="M281,190.07a.82.82,0,0,1-.82.82.82.82,0,0,1-.81-.82.81.81,0,0,1,.81-.81A.82.82,0,0,1,281,190.07Z" transform="translate(-147.19)"/><path class="cls-3" d="M215.22,30.12a.82.82,0,0,1-.81.82.82.82,0,1,1,0-1.64A.82.82,0,0,1,215.22,30.12Z" transform="translate(-147.19)"/><path class="cls-3" d="M260.54,45.33a.82.82,0,1,1-1.64,0,.82.82,0,0,1,1.64,0Z" transform="translate(-147.19)"/><circle class="cls-3" cx="61.33" cy="63.66" r="0.82"/><circle class="cls-3" cx="69.25" cy="49.85" r="0.82"/><path class="cls-3" d="M307.64,70.82a.81.81,0,0,1-.81.81.82.82,0,0,1-.82-.81.82.82,0,0,1,.82-.82A.82.82,0,0,1,307.64,70.82Z" transform="translate(-147.19)"/><circle class="cls-3" cx="58.78" cy="90.45" r="0.82"/><circle class="cls-3" cx="55.54" cy="119.83" r="0.82"/><path class="cls-3" d="M319.4,110.13a.82.82,0,0,1-.82.82.82.82,0,0,1-.81-.82.81.81,0,0,1,.81-.81A.82.82,0,0,1,319.4,110.13Z" transform="translate(-147.19)"/><path class="cls-3" d="M328,87.16a.82.82,0,1,1-.82-.82A.82.82,0,0,1,328,87.16Z" transform="translate(-147.19)"/><path class="cls-3" d="M293.26,46.58a.82.82,0,1,1-.82-.82A.82.82,0,0,1,293.26,46.58Z" transform="translate(-147.19)"/><path class="cls-3" d="M308.34,23a.82.82,0,0,1-.81.82.82.82,0,1,1,0-1.64A.82.82,0,0,1,308.34,23Z" transform="translate(-147.19)"/><path class="cls-3" d="M247.4,13.7a.81.81,0,0,1-.81.81.82.82,0,1,1,.81-.81Z" transform="translate(-147.19)"/><path class="cls-3" d="M247.4,28.9a.82.82,0,1,1-1.64,0,.82.82,0,0,1,1.64,0Z" transform="translate(-147.19)"/><circle class="cls-3" cx="210.05" cy="132.31" r="0.82"/><path class="cls-3" d="M344.94,176.79a.82.82,0,0,1-.81.82.82.82,0,1,1,0-1.64A.82.82,0,0,1,344.94,176.79Z" transform="translate(-147.19)"/><path class="cls-3" d="M346.26,210.21a.82.82,0,0,1-.82.81.81.81,0,0,1-.81-.81.82.82,0,0,1,.81-.82A.82.82,0,0,1,346.26,210.21Z" transform="translate(-147.19)"/><circle class="cls-3" cx="139.42" cy="237.77" r="0.82"/><circle class="cls-3" cx="114.39" cy="241.09" r="0.82"/><path class="cls-3" d="M250.52,219.41a.82.82,0,1,1-.81-.82A.82.82,0,0,1,250.52,219.41Z" transform="translate(-147.19)"/><path class="cls-3" d="M278.27,215.46a.82.82,0,0,1-.82.82.82.82,0,1,1,.82-.82Z" transform="translate(-147.19)"/><path class="cls-3" d="M273,200.22a.82.82,0,1,1-.81-.81A.81.81,0,0,1,273,200.22Z" transform="translate(-147.19)"/><path class="cls-3" d="M261,202.91a.81.81,0,0,1-.81.81.82.82,0,0,1-.82-.81.82.82,0,0,1,.82-.82A.82.82,0,0,1,261,202.91Z" transform="translate(-147.19)"/><path class="cls-3" d="M149.82,174.85a.82.82,0,0,1-.82.81.81.81,0,0,1-.81-.81A.82.82,0,0,1,149,174,.82.82,0,0,1,149.82,174.85Z" transform="translate(-147.19)"/><circle class="cls-3" cx="20.2" cy="193.23" r="0.82"/><path class="cls-3" d="M223.81,174.85a.82.82,0,0,1-.82.82.82.82,0,0,1,0-1.64A.82.82,0,0,1,223.81,174.85Z" transform="translate(-147.19)"/><circle class="cls-3" cx="54.22" cy="133.72" r="0.82"/><path class="cls-3" d="M163.54,132.3a.82.82,0,1,1-1.63,0,.82.82,0,0,1,1.63,0Z" transform="translate(-147.19)"/><path class="cls-3" d="M457.69,110.15a.82.82,0,1,1-.82-.81A.82.82,0,0,1,457.69,110.15Z" transform="translate(-147.19)"/><path class="cls-3" d="M503,125.37a.82.82,0,0,1-.82.81.81.81,0,0,1-.81-.81.82.82,0,0,1,.81-.82A.82.82,0,0,1,503,125.37Z" transform="translate(-147.19)"/><path class="cls-3" d="M451.8,143.69a.82.82,0,0,1-.82.82.82.82,0,0,1-.81-.82.81.81,0,0,1,.81-.81A.82.82,0,0,1,451.8,143.69Z" transform="translate(-147.19)"/><path class="cls-3" d="M459.72,129.88a.82.82,0,0,1-.82.82.82.82,0,0,1,0-1.64A.82.82,0,0,1,459.72,129.88Z" transform="translate(-147.19)"/><circle class="cls-3" cx="402.1" cy="150.85" r="0.82"/><path class="cls-3" d="M449.25,170.49a.82.82,0,0,1-1.64,0,.82.82,0,1,1,1.64,0Z" transform="translate(-147.19)"/><path class="cls-3" d="M446,199.87a.82.82,0,1,1-.82-.82A.82.82,0,0,1,446,199.87Z" transform="translate(-147.19)"/><path class="cls-3" d="M561.86,190.17a.82.82,0,1,1-.82-.82A.81.81,0,0,1,561.86,190.17Z" transform="translate(-147.19)"/><circle class="cls-3" cx="422.45" cy="167.19" r="0.82"/><circle class="cls-3" cx="387.72" cy="126.61" r="0.82"/><circle class="cls-3" cx="402.8" cy="102.99" r="0.82"/><path class="cls-3" d="M489.87,93.73a.82.82,0,1,1-.82-.82A.82.82,0,0,1,489.87,93.73Z" transform="translate(-147.19)"/><path class="cls-3" d="M489.86,108.94a.82.82,0,1,1-.82-.82A.82.82,0,0,1,489.86,108.94Z" transform="translate(-147.19)"/><circle class="cls-3" cx="452.51" cy="212.35" r="0.82"/><path class="cls-3" d="M587.41,256.82a.82.82,0,1,1-.82-.81A.82.82,0,0,1,587.41,256.82Z" transform="translate(-147.19)"/><circle class="cls-3" cx="440.72" cy="290.24" r="0.82"/><path class="cls-3" d="M529.88,317.81a.81.81,0,0,1-.81.81.82.82,0,0,1-.82-.81.82.82,0,0,1,.82-.82A.82.82,0,0,1,529.88,317.81Z" transform="translate(-147.19)"/><path class="cls-3" d="M504.86,321.12a.82.82,0,0,1-.82.82.82.82,0,0,1,0-1.64A.82.82,0,0,1,504.86,321.12Z" transform="translate(-147.19)"/><circle class="cls-3" cx="344.98" cy="299.44" r="0.82"/><circle class="cls-3" cx="372.73" cy="295.5" r="0.82"/><path class="cls-3" d="M515.5,280.25a.82.82,0,1,1-.82-.81A.82.82,0,0,1,515.5,280.25Z" transform="translate(-147.19)"/><circle class="cls-3" cx="355.48" cy="282.94" r="0.82"/><circle class="cls-3" cx="244.28" cy="254.88" r="0.82"/><path class="cls-3" d="M410.67,273.27a.82.82,0,0,1-1.64,0,.82.82,0,1,1,1.64,0Z" transform="translate(-147.19)"/><path class="cls-3" d="M466.27,254.88a.81.81,0,0,1-.81.82.82.82,0,1,1,0-1.63A.81.81,0,0,1,466.27,254.88Z" transform="translate(-147.19)"/><circle class="cls-3" cx="296.68" cy="213.76" r="0.82"/><path class="cls-3" d="M406,212.34a.81.81,0,0,1-.81.81.82.82,0,1,1,.81-.81Z" transform="translate(-147.19)"/><path class="cls-3" d="M341.19,119.72a.82.82,0,0,1-.82.81.82.82,0,0,1,0-1.63A.82.82,0,0,1,341.19,119.72Z" transform="translate(-147.19)"/><path class="cls-3" d="M358.43,104.41a.82.82,0,0,1-.82.82.82.82,0,0,1-.81-.82.81.81,0,0,1,.81-.81A.82.82,0,0,1,358.43,104.41Z" transform="translate(-147.19)"/><circle class="cls-3" cx="198.6" cy="113.6" r="0.82"/><path class="cls-3" d="M385.88,99.18a.81.81,0,0,1-.81.82.82.82,0,1,1,0-1.63A.81.81,0,0,1,385.88,99.18Z" transform="translate(-147.19)"/><path class="cls-3" d="M403.58,114.32a.82.82,0,1,1-.82-.81A.82.82,0,0,1,403.58,114.32Z" transform="translate(-147.19)"/><path class="cls-3" d="M338.69,78.85a.82.82,0,1,1-1.64,0,.82.82,0,0,1,1.64,0Z" transform="translate(-147.19)"/><circle class="cls-3" cx="152.71" cy="110.37" r="0.82"/><path class="cls-3" d="M454.42,296.62a.82.82,0,0,1-.82.82.82.82,0,0,1-.81-.82.81.81,0,0,1,.81-.81A.82.82,0,0,1,454.42,296.62Z" transform="translate(-147.19)"/></svg>