<svg xmlns="http://www.w3.org/2000/svg" xmlns:xlink="http://www.w3.org/1999/xlink" viewBox="0 0 509.22 375.12"><defs><style>.cls-1,.cls-21{fill:#fff;}.cls-2,.cls-22{opacity:0.4;}.cls-3{fill:#9bcc9a;}.cls-21,.cls-4{opacity:0.2;}.cls-5{fill:url(#linear-gradient);}.cls-6{fill:url(#linear-gradient-2);}.cls-7{fill:url(#linear-gradient-3);}.cls-8{fill:url(#linear-gradient-4);}.cls-9{fill:url(#linear-gradient-5);}.cls-10{fill:url(#linear-gradient-6);}.cls-11{opacity:0.1;}.cls-12{fill:#f2f2f2;}.cls-13,.cls-20{opacity:0.3;}.cls-13{font-size:33.71px;font-family:Montserrat-Bold, Montserrat;font-weight:700;}.cls-14{letter-spacing:-0.01em;}.cls-15{letter-spacing:-0.02em;}.cls-16{fill:url(#linear-gradient-7);}.cls-17{fill:url(#linear-gradient-8);}.cls-18{fill:#8163ad;}.cls-19{fill:#ff830e;}</style><linearGradient id="linear-gradient" x1="936.99" y1="236.48" x2="936.99" y2="125.02" gradientTransform="matrix(-0.63, 0.77, 0.77, 0.63, 652.58, -519.33)" gradientUnits="userSpaceOnUse"><stop offset="0" stop-color="#559176"/><stop offset="1" stop-color="#70c19c"/></linearGradient><linearGradient id="linear-gradient-2" x1="825.76" y1="196.42" x2="825.76" y2="84.96" gradientTransform="matrix(-1, 0.09, 0.09, 1, 1046.41, 23.2)" xlink:href="#linear-gradient"/><linearGradient id="linear-gradient-3" x1="179.84" y1="342.17" x2="278.56" y2="342.17" gradientUnits="userSpaceOnUse"><stop offset="0" stop-color="#557055"/><stop offset="1" stop-color="#779c76"/></linearGradient><linearGradient id="linear-gradient-4" x1="508.27" y1="218.6" x2="639.01" y2="218.6" gradientTransform="translate(-23.45 158.62) rotate(-3.56)" xlink:href="#linear-gradient"/><linearGradient id="linear-gradient-5" x1="513.98" y1="212.72" x2="624" y2="212.72" gradientTransform="translate(-23.45 158.62) rotate(-3.56)" xlink:href="#linear-gradient"/><linearGradient id="linear-gradient-6" x1="490.59" y1="405.2" x2="635.38" y2="405.2" xlink:href="#linear-gradient-3"/><linearGradient id="linear-gradient-7" x1="777.35" y1="176.34" x2="777.35" y2="176.34" gradientTransform="matrix(-1, 0, 0, 1, 928.68, 0)" gradientUnits="userSpaceOnUse"><stop offset="0" stop-color="#ff857a"/><stop offset="1" stop-color="#ffa57a"/></linearGradient><linearGradient id="linear-gradient-8" x1="775.77" y1="171.01" x2="775.88" y2="171.01" xlink:href="#linear-gradient-7"/></defs><title>newssemidark</title><g id="OBJECTS"><path class="cls-1" d="M490.2,117.88a2.41,2.41,0,1,1-2.41-2.41A2.4,2.4,0,0,1,490.2,117.88Z" transform="translate(-131.66 -62.44)"/><path class="cls-1" d="M274,63.41a1,1,0,1,1-1-1A1,1,0,0,1,274,63.41Z" transform="translate(-131.66 -62.44)"/><circle class="cls-1" cx="46.02" cy="116.11" r="4"/><path class="cls-1" d="M152.87,223.29a4.81,4.81,0,1,1-4.81-4.81A4.8,4.8,0,0,1,152.87,223.29Z" transform="translate(-131.66 -62.44)"/><circle class="cls-1" cx="88.71" cy="80.53" r="4.79"/><circle class="cls-1" cx="440.39" cy="82.84" r="4.78"/><path class="cls-1" d="M581,226.32a4.47,4.47,0,1,1-4.46-4.47A4.46,4.46,0,0,1,581,226.32Z" transform="translate(-131.66 -62.44)"/><path class="cls-1" d="M451.55,65.51a3.08,3.08,0,1,1-3.08-3.07A3.08,3.08,0,0,1,451.55,65.51Z" transform="translate(-131.66 -62.44)"/><path class="cls-1" d="M545.26,68.37h0a10.64,10.64,0,0,0,8.32,8.31h0A10.63,10.63,0,0,0,545.26,85h0A10.61,10.61,0,0,0,537,76.68h0a10.62,10.62,0,0,0,8.31-8.31Z" transform="translate(-131.66 -62.44)"/><path class="cls-1" d="M234.88,72.21h0a6.78,6.78,0,0,0,5.31,5.31h0a6.79,6.79,0,0,0-5.31,5.31h0a6.79,6.79,0,0,0-5.31-5.31h0a6.78,6.78,0,0,0,5.31-5.31Z" transform="translate(-131.66 -62.44)"/><path class="cls-1" d="M301.78,123.88h0a6.78,6.78,0,0,0,5.31,5.31h0a6.79,6.79,0,0,0-5.31,5.31h0a6.79,6.79,0,0,0-5.31-5.31h0a6.78,6.78,0,0,0,5.31-5.31Z" transform="translate(-131.66 -62.44)"/><path class="cls-1" d="M163.84,115h0a6.78,6.78,0,0,0,5.31,5.31h0a6.81,6.81,0,0,0-5.31,5.31h0a6.81,6.81,0,0,0-5.31-5.31h0a6.78,6.78,0,0,0,5.31-5.31Z" transform="translate(-131.66 -62.44)"/><g class="cls-2"><path class="cls-1" d="M316,423.53a1.73,1.73,0,0,1-.64-.12,1.84,1.84,0,0,1-.55-.37,1.67,1.67,0,0,1-.48-1.18,1.66,1.66,0,0,1,0-.32,1.08,1.08,0,0,1,.09-.32,1.64,1.64,0,0,1,.16-.29,1.57,1.57,0,0,1,.2-.25,1.72,1.72,0,0,1,2.37,0,1.16,1.16,0,0,1,.2.25,1.64,1.64,0,0,1,.16.29,1.5,1.5,0,0,1,.1.32,1.66,1.66,0,0,1,0,.32,1.68,1.68,0,0,1-.13.65,1.56,1.56,0,0,1-.36.53,1.68,1.68,0,0,1-.54.37A1.73,1.73,0,0,1,316,423.53Z" transform="translate(-131.66 -62.44)"/><path class="cls-1" d="M310.17,422.22h0a1.68,1.68,0,0,1-1.24-2h0a1.67,1.67,0,0,1,2-1.24h0a1.67,1.67,0,0,1,1.25,2h0a1.68,1.68,0,0,1-1.62,1.29h0A2.58,2.58,0,0,1,310.17,422.22Zm-5.42-1.29a1.68,1.68,0,0,1-1.24-2h0a1.69,1.69,0,0,1,2-1.24h0a1.68,1.68,0,0,1,1.24,2h0a1.69,1.69,0,0,1-1.63,1.29h0A1.35,1.35,0,0,1,304.75,420.93Zm-5.41-1.29a1.66,1.66,0,0,1-1.23-2h0a1.65,1.65,0,0,1,2-1.23h0a1.66,1.66,0,0,1,1.25,2h0a1.69,1.69,0,0,1-1.63,1.3h0A1.85,1.85,0,0,1,299.34,419.64Zm-5.41-1.28a1.69,1.69,0,0,1-1.24-2h0a1.67,1.67,0,0,1,2-1.23h0a1.66,1.66,0,0,1,1.23,2h0a1.65,1.65,0,0,1-1.62,1.28h0A1.67,1.67,0,0,1,293.93,418.36Zm-5.41-1.29h0a1.67,1.67,0,0,1-1.23-2h0a1.67,1.67,0,0,1,2-1.24h0a1.69,1.69,0,0,1,1.24,2h0a1.67,1.67,0,0,1-1.63,1.28h0A2.58,2.58,0,0,1,288.52,417.07Zm-5.41-1.31h0a1.65,1.65,0,0,1-1.23-2h0a1.68,1.68,0,0,1,2-1.24h0a1.66,1.66,0,0,1,1.22,2h0a1.66,1.66,0,0,1-1.62,1.28h0A1.31,1.31,0,0,1,283.11,415.76Zm-5.41-1.3a1.66,1.66,0,0,1-1.22-2h0a1.65,1.65,0,0,1,2-1.22h0a1.66,1.66,0,0,1,1.23,2h0a1.67,1.67,0,0,1-1.63,1.28h0A1.78,1.78,0,0,1,277.7,414.46Zm-5.4-1.3a1.68,1.68,0,0,1-1.24-2h0a1.69,1.69,0,0,1,2-1.24h0a1.67,1.67,0,0,1,1.22,2h0a1.67,1.67,0,0,1-1.62,1.28h0A1.72,1.72,0,0,1,272.3,413.16Zm-5.41-1.32a1.66,1.66,0,0,1-1.22-2h0a1.65,1.65,0,0,1,2-1.23h0a1.68,1.68,0,0,1,1.23,2h0a1.67,1.67,0,0,1-1.62,1.27h0A1.87,1.87,0,0,1,266.89,411.84Zm-5.4-1.32a1.66,1.66,0,0,1-1.23-2h0a1.67,1.67,0,0,1,2-1.23h0a1.67,1.67,0,0,1,1.22,2h0a1.66,1.66,0,0,1-1.61,1.28h0A1.75,1.75,0,0,1,261.49,410.52Zm-5.41-1.32a1.67,1.67,0,0,1-1.22-2h0a1.66,1.66,0,0,1,2-1.23h0a1.68,1.68,0,0,1,1.24,2h0a1.69,1.69,0,0,1-1.63,1.27h0A1.81,1.81,0,0,1,256.08,409.2Zm235.55-2a1.67,1.67,0,0,1,1.67-1.67h0a1.68,1.68,0,0,1,1.67,1.68h0a1.66,1.66,0,0,1-1.67,1.66h0A1.67,1.67,0,0,1,491.63,407.16Zm5.56,0a1.69,1.69,0,0,1,1.65-1.7h0a1.69,1.69,0,0,1,1.7,1.67h0a1.69,1.69,0,0,1-1.65,1.69h0A1.68,1.68,0,0,1,497.19,407.15Zm-9.47,1.65a1.67,1.67,0,0,1-1.65-1.7h0a1.67,1.67,0,0,1,1.69-1.65h0a1.67,1.67,0,0,1,1.65,1.7h0a1.67,1.67,0,0,1-1.67,1.65h0Zm-5.57-.1a1.68,1.68,0,0,1-1.64-1.71h0a1.66,1.66,0,0,1,1.7-1.62v0a1.69,1.69,0,0,1,1.64,1.72h0a1.68,1.68,0,0,1-1.67,1.63h0Zm20.6-1.63a1.69,1.69,0,0,1,1.63-1.72h0A1.68,1.68,0,0,1,506.1,407h0a1.68,1.68,0,0,1-1.63,1.72h0A1.69,1.69,0,0,1,502.75,407.07Zm-26.17,1.48a1.67,1.67,0,0,1-1.63-1.71h0a1.68,1.68,0,0,1,1.73-1.63h0a1.67,1.67,0,0,1,1.61,1.73h0a1.66,1.66,0,0,1-1.67,1.61h0Zm33.47-.06a1.66,1.66,0,0,1-1.73-1.6h0a1.67,1.67,0,0,1,1.59-1.75h0a1.7,1.7,0,0,1,1.75,1.6h0a1.7,1.7,0,0,1-1.61,1.75ZM471,408.36a1.64,1.64,0,0,1-1.6-1.72h0a1.66,1.66,0,0,1,1.73-1.61h0a1.66,1.66,0,0,1,1.6,1.73h0a1.66,1.66,0,0,1-1.67,1.6H471Zm42.86-1.74a1.7,1.7,0,0,1,1.57-1.78h0a1.68,1.68,0,0,1,1.78,1.55h0a1.68,1.68,0,0,1-1.56,1.78h-.11A1.68,1.68,0,0,1,513.86,406.62Zm-48.43,1.53a1.67,1.67,0,0,1-1.59-1.74h0a1.66,1.66,0,0,1,1.74-1.6h0a1.67,1.67,0,0,1,1.6,1.74h0a1.67,1.67,0,0,1-1.68,1.6h-.07Zm-214.75-.28h0a1.67,1.67,0,0,1-1.22-2h0a1.68,1.68,0,0,1,2-1.22h0a1.66,1.66,0,0,1,1.22,2h0a1.68,1.68,0,0,1-1.62,1.27h0A1.33,1.33,0,0,1,250.68,407.87Zm209.2,0h0a1.67,1.67,0,0,1-1.59-1.74h0a1.67,1.67,0,0,1,1.75-1.6h0a1.67,1.67,0,0,1,1.59,1.74h0a1.68,1.68,0,0,1-1.67,1.61h-.07Zm59.54-1.66a1.66,1.66,0,0,1,1.52-1.81h0a1.66,1.66,0,0,1,1.81,1.52h0a1.68,1.68,0,0,1-1.53,1.8h-.13A1.66,1.66,0,0,1,519.42,406.25Zm5.53-.51a1.67,1.67,0,0,1,1.49-1.83h0a1.68,1.68,0,0,1,1.85,1.48h0a1.69,1.69,0,0,1-1.5,1.84h-.18A1.68,1.68,0,0,1,525,405.74Zm-279.67.8h0a1.66,1.66,0,0,1-1.22-2h0a1.67,1.67,0,0,1,2-1.23h0a1.67,1.67,0,0,1,1.22,2h0a1.68,1.68,0,0,1-1.63,1.27h0A1.89,1.89,0,0,1,245.28,406.54Zm285.2-1.42a1.67,1.67,0,0,1,1.44-1.87h0a1.67,1.67,0,0,1,1.88,1.42h0a1.68,1.68,0,0,1-1.43,1.89h-.24A1.68,1.68,0,0,1,530.48,405.12Zm5.51-.76a1.67,1.67,0,0,1,1.39-1.91h0a1.69,1.69,0,0,1,1.92,1.38h0a1.67,1.67,0,0,1-1.4,1.91h0a.77.77,0,0,1-.26,0h0A1.66,1.66,0,0,1,536,404.36Zm-296.11.84a1.67,1.67,0,0,1-1.22-2h0a1.65,1.65,0,0,1,2-1.22h0a1.67,1.67,0,0,1,1.23,2h0a1.69,1.69,0,0,1-1.63,1.27h0A1.75,1.75,0,0,1,239.88,405.2Zm301.6-1.75a1.66,1.66,0,0,1,1.33-1.95h0a1.68,1.68,0,0,1,2,1.34h0a1.69,1.69,0,0,1-1.34,2h0a1.63,1.63,0,0,1-.31,0h0A1.68,1.68,0,0,1,541.48,403.45Zm-307,.41a1.67,1.67,0,0,1-1.22-2h0a1.67,1.67,0,0,1,2-1.21h0a1.67,1.67,0,0,1,1.22,2h0a1.69,1.69,0,0,1-1.63,1.28h0A1.9,1.9,0,0,1,234.48,403.86Zm312.46-1.47a1.68,1.68,0,0,1,1.27-2h0a1.68,1.68,0,0,1,2,1.27h0a1.68,1.68,0,0,1-1.27,2h0a2.46,2.46,0,0,1-.37,0h0A1.67,1.67,0,0,1,546.94,402.39Zm-317.86.12a1.68,1.68,0,0,1-1.22-2h0a1.68,1.68,0,0,1,2-1.21h0a1.67,1.67,0,0,1,1.22,2h0a1.66,1.66,0,0,1-1.62,1.26h0A1.48,1.48,0,0,1,229.08,402.51Zm323.28-1.36a1.68,1.68,0,0,1,1.21-2h0a1.68,1.68,0,0,1,2,1.21h0a1.67,1.67,0,0,1-1.2,2h0a2.09,2.09,0,0,1-.42.05h0A1.68,1.68,0,0,1,552.36,401.15Zm-328.68,0h0a1.67,1.67,0,0,1-1.21-2h0a1.66,1.66,0,0,1,2-1.22h0a1.67,1.67,0,0,1,1.21,2h0a1.66,1.66,0,0,1-1.61,1.26h0A1.22,1.22,0,0,1,223.68,401.15Zm334.06-1.41a1.68,1.68,0,0,1,1.14-2.08h0a1.68,1.68,0,0,1,2.07,1.13h0a1.65,1.65,0,0,1-1.14,2.07h0a1.47,1.47,0,0,1-.46.07h0A1.68,1.68,0,0,1,557.74,399.74Zm-339.45.06a1.67,1.67,0,0,1-1.21-2h0a1.66,1.66,0,0,1,2-1.22h0a1.67,1.67,0,0,1,1.22,2h0a1.66,1.66,0,0,1-1.62,1.26h0A1.44,1.44,0,0,1,218.29,399.8Zm344.78-1.67a1.66,1.66,0,0,1,1.06-2.11h0a1.66,1.66,0,0,1,2.11,1.05h0a1.69,1.69,0,0,1-1.06,2.12h0a1.59,1.59,0,0,1-.53.08h0A1.66,1.66,0,0,1,563.07,398.13Zm-350.17.31a1.67,1.67,0,0,1-1.22-2h0a1.67,1.67,0,0,1,2-1.22h0a1.66,1.66,0,0,1,1.21,2h0a1.65,1.65,0,0,1-1.61,1.26h0A1.4,1.4,0,0,1,212.9,398.44Zm355.43-2.1a1.67,1.67,0,0,1,1-2.15h0a1.65,1.65,0,0,1,2.14,1h0a1.67,1.67,0,0,1-1,2.15h0a1.74,1.74,0,0,1-.59.1h0A1.67,1.67,0,0,1,568.33,396.34Zm-360.83.73a1.65,1.65,0,0,1-1.2-2h0a1.67,1.67,0,0,1,2-1.22h0a1.68,1.68,0,0,1,1.2,2h0a1.66,1.66,0,0,1-1.62,1.26h0A1.51,1.51,0,0,1,207.5,397.07Zm-5.39-1.37a1.67,1.67,0,0,1-1.21-2h0a1.68,1.68,0,0,1,2-1.21h0a1.68,1.68,0,0,1,1.22,2h0a1.68,1.68,0,0,1-1.63,1.26h0A1.51,1.51,0,0,1,202.11,395.7Zm371.42-1.36a1.68,1.68,0,0,1,.89-2.18h0a1.67,1.67,0,0,1,2.19.9h0a1.68,1.68,0,0,1-.89,2.19h0a1.68,1.68,0,0,1-.65.13h0A1.66,1.66,0,0,1,573.53,394.34Zm-376.8,0a1.67,1.67,0,0,1-1.21-2h0a1.67,1.67,0,0,1,2-1.2h0a1.66,1.66,0,0,1,1.2,2h0a1.66,1.66,0,0,1-1.61,1.25h0A1.4,1.4,0,0,1,196.73,394.33Zm381.91-2.16a1.68,1.68,0,0,1,.81-2.23h0a1.68,1.68,0,0,1,2.23.8h0a1.68,1.68,0,0,1-.81,2.22h0a1.66,1.66,0,0,1-.71.16h0A1.69,1.69,0,0,1,578.64,392.17Zm-387.32.75a1.66,1.66,0,0,1-1.18-2h0a1.69,1.69,0,0,1,2.05-1.2h0a1.69,1.69,0,0,1,1.18,2.06h0a1.68,1.68,0,0,1-1.62,1.23h0A1.58,1.58,0,0,1,191.32,392.92Zm-5.38-1.49h0a1.67,1.67,0,0,1-1.15-2.07h0a1.68,1.68,0,0,1,2.06-1.14h0a1.67,1.67,0,0,1,1.15,2.07h0a1.68,1.68,0,0,1-1.61,1.21h0A1.37,1.37,0,0,1,185.94,391.43Zm397.72-1.64a1.68,1.68,0,0,1,.73-2.26h0a1.67,1.67,0,0,1,2.25.72h0a1.67,1.67,0,0,1-.73,2.25h0a1.7,1.7,0,0,1-.75.19h0A1.7,1.7,0,0,1,583.66,389.79Zm-403.09,0a1.69,1.69,0,0,1-1.1-2.1h0a1.67,1.67,0,0,1,2.1-1.09h0a1.67,1.67,0,0,1,1.09,2.1h0a1.68,1.68,0,0,1-1.59,1.17h0A1.69,1.69,0,0,1,180.57,389.82Zm-5.34-1.8a1.65,1.65,0,0,1-1-2.12h0a1.67,1.67,0,0,1,2.13-1h0a1.68,1.68,0,0,1,1,2.14h0a1.68,1.68,0,0,1-1.59,1.1h0A1.6,1.6,0,0,1,175.23,388Zm413.36-.83a1.66,1.66,0,0,1,.62-2.27v0a1.69,1.69,0,0,1,2.29.63h0a1.68,1.68,0,0,1-.63,2.28h0a1.65,1.65,0,0,1-.83.23h0A1.68,1.68,0,0,1,588.59,387.19ZM170,386a1.68,1.68,0,0,1-.91-2.19h0a1.67,1.67,0,0,1,2.18-.9h0a1.66,1.66,0,0,1,.91,2.18h0a1.68,1.68,0,0,1-1.55,1h0A1.57,1.57,0,0,1,170,386Zm423.43-1.62a1.68,1.68,0,0,1,.53-2.31h0a1.66,1.66,0,0,1,2.3.52h0a1.67,1.67,0,0,1-.52,2.3h0a1.65,1.65,0,0,1-.89.27h0A1.7,1.7,0,0,1,593.39,384.39Zm-428.61-.68a1.67,1.67,0,0,1-.77-2.23h0a1.67,1.67,0,0,1,2.22-.79h0a1.67,1.67,0,0,1,.78,2.24h0a1.66,1.66,0,0,1-1.5.95h0A1.73,1.73,0,0,1,164.78,383.71Zm433.28-2.34a1.69,1.69,0,0,1,.41-2.33h0a1.69,1.69,0,0,1,2.33.41h0a1.66,1.66,0,0,1-.41,2.33h0a1.68,1.68,0,0,1-1,.3h0A1.65,1.65,0,0,1,598.06,381.37Zm-438.3-.3h0a1.67,1.67,0,0,1-.63-2.27h0a1.67,1.67,0,0,1,2.28-.63h0a1.67,1.67,0,0,1,.62,2.28h0a1.65,1.65,0,0,1-1.45.84h0A1.53,1.53,0,0,1,159.76,381.07Zm442.83-2.93a1.65,1.65,0,0,1,.3-2.34h0a1.66,1.66,0,0,1,2.34.29h0a1.67,1.67,0,0,1-.29,2.34h0a1.68,1.68,0,0,1-1,.36h0A1.68,1.68,0,0,1,602.59,378.14Zm-447.67-.08a1.67,1.67,0,0,1-.43-2.33h0a1.67,1.67,0,0,1,2.33-.43h0a1.68,1.68,0,0,1,.43,2.31h0a1.69,1.69,0,0,1-1.38.74h0A1.74,1.74,0,0,1,154.92,378.06Zm452-3.38a1.68,1.68,0,0,1,.18-2.36h0a1.68,1.68,0,0,1,2.36.18h0a1.68,1.68,0,0,1-.17,2.36h0a1.72,1.72,0,0,1-1.1.4h0A1.72,1.72,0,0,1,606.94,374.68Zm-456.58-.07a1.68,1.68,0,0,1-.21-2.36h0a1.67,1.67,0,0,1,2.35-.21h0a1.66,1.66,0,0,1,.22,2.35h0a1.64,1.64,0,0,1-1.29.61h0A1.7,1.7,0,0,1,150.36,374.61ZM611.12,371a1.68,1.68,0,0,1,0-2.37h0a1.67,1.67,0,0,1,2.36.05h0a1.67,1.67,0,0,1,0,2.36h0a1.7,1.7,0,0,1-1.16.47h0A1.66,1.66,0,0,1,611.12,371Zm-465-.29a1.68,1.68,0,0,1,0-2.37h0a1.66,1.66,0,0,1,2.36,0h0a1.68,1.68,0,0,1,0,2.36h0a1.71,1.71,0,0,1-1.17.47h0A1.69,1.69,0,0,1,146.16,370.72Zm468.93-3.61a1.69,1.69,0,0,1-.09-2.37h0a1.66,1.66,0,0,1,2.36-.07h0a1.66,1.66,0,0,1,.09,2.36h0a1.72,1.72,0,0,1-1.22.53h0A1.66,1.66,0,0,1,615.09,367.11Zm-472.69-.74a1.67,1.67,0,0,1,.3-2.34h0a1.67,1.67,0,0,1,2.35.3h0a1.67,1.67,0,0,1-.31,2.34h0a1.62,1.62,0,0,1-1,.35h0A1.68,1.68,0,0,1,142.4,366.37ZM618.82,363a1.68,1.68,0,0,1-.22-2.35h0a1.68,1.68,0,0,1,2.36-.22h0a1.68,1.68,0,0,1,.23,2.35h0a1.71,1.71,0,0,1-1.3.61h0A1.68,1.68,0,0,1,618.82,363ZM139.16,361.6a1.66,1.66,0,0,1,.59-2.28h0a1.66,1.66,0,0,1,2.29.58h0a1.68,1.68,0,0,1-.58,2.29h0a1.68,1.68,0,0,1-.86.23h0A1.65,1.65,0,0,1,139.16,361.6Zm483.16-2.93a1.66,1.66,0,0,1-.35-2.33h0a1.66,1.66,0,0,1,2.33-.37h0a1.69,1.69,0,0,1,.36,2.34h0a1.66,1.66,0,0,1-1.36.68h0A1.66,1.66,0,0,1,622.32,358.67Zm-485.81-2.16a1.68,1.68,0,0,1,.85-2.22h0a1.67,1.67,0,0,1,2.21.85h0a1.67,1.67,0,0,1-.84,2.2h0a1.68,1.68,0,0,1-.69.15h0A1.69,1.69,0,0,1,136.51,356.51Zm489-2.38a1.65,1.65,0,0,1-.51-2.29h0a1.67,1.67,0,0,1,2.31-.53h0a1.69,1.69,0,0,1,.51,2.31h0a1.68,1.68,0,0,1-1.41.78h0A1.68,1.68,0,0,1,625.55,354.13Zm-491.1-3h0a1.67,1.67,0,0,1,1.07-2.11h0a1.67,1.67,0,0,1,2.11,1.07h0a1.67,1.67,0,0,1-1.07,2.11h0a1.89,1.89,0,0,1-.52.09h0A1.67,1.67,0,0,1,134.45,351.15Zm494-1.75a1.69,1.69,0,0,1-.68-2.27h0a1.7,1.7,0,0,1,2.28-.68h0a1.69,1.69,0,0,1,.67,2.27h0a1.66,1.66,0,0,1-1.47.88h0A1.79,1.79,0,0,1,628.46,349.4ZM133,345.62h0a1.7,1.7,0,0,1,1.28-2h0a1.68,1.68,0,0,1,2,1.3h0a1.69,1.69,0,0,1-1.28,2h0a2.19,2.19,0,0,1-.36,0h0A1.67,1.67,0,0,1,133,345.62ZM631,344.47a1.67,1.67,0,0,1-.83-2.22h0a1.67,1.67,0,0,1,2.21-.82h0a1.68,1.68,0,0,1,.84,2.22h0a1.69,1.69,0,0,1-1.53,1h0A1.65,1.65,0,0,1,631,344.47ZM132,340a1.68,1.68,0,0,1,1.47-1.85h0a1.66,1.66,0,0,1,1.85,1.47h0a1.66,1.66,0,0,1-1.47,1.85h-.19A1.68,1.68,0,0,1,132,340Zm501.25-.59a1.66,1.66,0,0,1-1-2.15h0a1.67,1.67,0,0,1,2.16-1h0a1.67,1.67,0,0,1,1,2.15h0a1.67,1.67,0,0,1-1.56,1.08h0A2,2,0,0,1,633.28,339.38Zm-501.62-5.12a1.67,1.67,0,0,1,1.64-1.7h0a1.67,1.67,0,0,1,1.7,1.64h0a1.67,1.67,0,0,1-1.64,1.7h0A1.66,1.66,0,0,1,131.66,334.26Zm503.51-.11a1.67,1.67,0,0,1-1.11-2.09h0a1.68,1.68,0,0,1,2.08-1.12h0a1.69,1.69,0,0,1,1.12,2.09h0a1.7,1.7,0,0,1-1.61,1.19h0A1.64,1.64,0,0,1,635.17,334.15Zm-501.81-3.81a1.67,1.67,0,0,1-1.54-1.79h0a1.67,1.67,0,0,1,1.79-1.54h0a1.66,1.66,0,0,1,1.54,1.79h0a1.67,1.67,0,0,1-1.67,1.54h-.12Zm503.35-1.54a1.67,1.67,0,0,1-1.25-2h0a1.67,1.67,0,0,1,2-1.25h0a1.66,1.66,0,0,1,1.25,2h0a1.68,1.68,0,0,1-1.63,1.3h0A1.33,1.33,0,0,1,636.71,328.8Zm-502.84-4a1.67,1.67,0,0,1-1.37-1.93h0a1.69,1.69,0,0,1,1.93-1.37h0a1.68,1.68,0,0,1,1.37,1.93h0a1.68,1.68,0,0,1-1.65,1.39h0Zm504-1.43a1.68,1.68,0,0,1-1.38-1.92h0a1.68,1.68,0,0,1,1.92-1.39h0a1.69,1.69,0,0,1,1.38,1.93h0a1.68,1.68,0,0,1-1.65,1.41h0Zm-503-4a1.67,1.67,0,0,1-1.2-2h0a1.67,1.67,0,0,1,2.05-1.18h0a1.67,1.67,0,0,1,1.19,2h0a1.68,1.68,0,0,1-1.61,1.25h0A1.61,1.61,0,0,1,134.9,319.33Zm503.83-1.46a1.67,1.67,0,0,1-1.52-1.82h0a1.69,1.69,0,0,1,1.83-1.5h0a1.67,1.67,0,0,1,1.5,1.82h0a1.66,1.66,0,0,1-1.66,1.51h-.15ZM136.42,314a1.66,1.66,0,0,1-1-2.14h0a1.67,1.67,0,0,1,2.15-1h0a1.67,1.67,0,0,1,1,2.15h0a1.66,1.66,0,0,1-1.56,1.09h0A1.46,1.46,0,0,1,136.42,314Zm502.74-1.66a1.65,1.65,0,0,1-1.62-1.71h0a1.66,1.66,0,0,1,1.7-1.63h0a1.68,1.68,0,0,1,1.64,1.71h0a1.67,1.67,0,0,1-1.67,1.63h-.05Zm-500.71-3.51a1.68,1.68,0,0,1-.79-2.24h0a1.67,1.67,0,0,1,2.23-.78h0a1.68,1.68,0,0,1,.79,2.23h0a1.67,1.67,0,0,1-1.52.94h0A1.65,1.65,0,0,1,138.45,308.81Zm499-3.63a1.66,1.66,0,0,1,1.59-1.75h0a1.66,1.66,0,0,1,1.75,1.58h0a1.67,1.67,0,0,1-1.59,1.75h-.08A1.67,1.67,0,0,1,637.47,305.18Zm-496.53-1.34a1.68,1.68,0,0,1-.59-2.3h0a1.67,1.67,0,0,1,2.29-.59h0a1.69,1.69,0,0,1,.59,2.3h0a1.68,1.68,0,0,1-1.45.81h0A1.67,1.67,0,0,1,140.94,303.84ZM637,299.76h0a1.67,1.67,0,0,1,1.46-1.86h0a1.66,1.66,0,0,1,1.86,1.45h0a1.67,1.67,0,0,1-1.45,1.86h0l-.21,0h0A1.68,1.68,0,0,1,637,299.76Zm-493.16-.67a1.68,1.68,0,0,1-.4-2.33h0a1.67,1.67,0,0,1,2.33-.4h0a1.66,1.66,0,0,1,.4,2.33h0a1.62,1.62,0,0,1-1.36.71h0A1.67,1.67,0,0,1,143.84,299.09Zm492.28-4.69h0a1.68,1.68,0,0,1,1.3-2h0a1.68,1.68,0,0,1,2,1.3h0a1.66,1.66,0,0,1-1.31,2h0a1.24,1.24,0,0,1-.33,0h0A1.69,1.69,0,0,1,636.12,294.4Zm-489,.2a1.67,1.67,0,0,1-.21-2.35h0a1.68,1.68,0,0,1,2.36-.21h0a1.68,1.68,0,0,1,.21,2.35h0a1.64,1.64,0,0,1-1.28.6h0A1.61,1.61,0,0,1,147.13,294.6Zm3.62-4.21a1.68,1.68,0,0,1,0-2.37h0a1.66,1.66,0,0,1,2.36,0h0a1.67,1.67,0,0,1,0,2.36h0a1.67,1.67,0,0,1-1.21.52h0A1.72,1.72,0,0,1,150.75,290.39Zm484.07-1.25a1.67,1.67,0,0,1,1.13-2.07h0A1.67,1.67,0,0,1,638,288.2h0a1.68,1.68,0,0,1-1.14,2.08h0a1.89,1.89,0,0,1-.47.06h0A1.66,1.66,0,0,1,634.82,289.14Zm-480.13-2.69a1.67,1.67,0,0,1,.13-2.36h0a1.68,1.68,0,0,1,2.36.13h0a1.69,1.69,0,0,1-.13,2.37h0a1.64,1.64,0,0,1-1.11.42h0A1.64,1.64,0,0,1,154.69,286.45ZM633.08,284h0a1.66,1.66,0,0,1,1-2.16h0a1.68,1.68,0,0,1,2.16.95h0a1.68,1.68,0,0,1-1,2.17h0a1.81,1.81,0,0,1-.6.11h0A1.67,1.67,0,0,1,633.08,284Zm-474.19-1.2a1.67,1.67,0,0,1,.29-2.34h0a1.67,1.67,0,0,1,2.35.29h0a1.67,1.67,0,0,1-.3,2.35h0a1.71,1.71,0,0,1-1,.35h0A1.65,1.65,0,0,1,158.89,282.81Zm4.43-3.34a1.69,1.69,0,0,1,.46-2.33h0a1.67,1.67,0,0,1,2.33.45h0a1.67,1.67,0,0,1-.46,2.32h0a1.59,1.59,0,0,1-.92.29h0A1.7,1.7,0,0,1,163.32,279.47Zm467.58-.41a1.68,1.68,0,0,1,.75-2.24h0a1.66,1.66,0,0,1,2.24.76h0a1.68,1.68,0,0,1-.76,2.24h0a1.78,1.78,0,0,1-.74.17h0A1.66,1.66,0,0,1,630.9,279.06ZM168,276.41a1.68,1.68,0,0,1,.6-2.28h0a1.67,1.67,0,0,1,2.29.6h0a1.66,1.66,0,0,1-.59,2.28h0a1.65,1.65,0,0,1-.85.23h0A1.67,1.67,0,0,1,168,276.41Zm460.32-2.08h0a1.69,1.69,0,0,1,.55-2.3h0a1.69,1.69,0,0,1,2.31.55h0a1.67,1.67,0,0,1-.55,2.29h0a1.61,1.61,0,0,1-.88.26h0A1.65,1.65,0,0,1,628.29,274.33Zm-455.47-.66a1.67,1.67,0,0,1,.74-2.25h0a1.67,1.67,0,0,1,2.24.75h0a1.67,1.67,0,0,1-.74,2.24h0a1.68,1.68,0,0,1-.75.17h0A1.66,1.66,0,0,1,172.82,273.67Zm5-2.44a1.7,1.7,0,0,1,.88-2.2h0a1.7,1.7,0,0,1,2.2.88h0a1.67,1.67,0,0,1-.88,2.2h0a1.69,1.69,0,0,1-.66.13h0A1.69,1.69,0,0,1,177.81,271.23Zm447.42-1.35h0a1.68,1.68,0,0,1,.32-2.35h0a1.69,1.69,0,0,1,2.35.33h0a1.67,1.67,0,0,1-.33,2.34h0a1.63,1.63,0,0,1-1,.34h0A1.64,1.64,0,0,1,625.23,269.88ZM183,269.11a1.68,1.68,0,0,1,1-2.14h0a1.68,1.68,0,0,1,2.14,1h0a1.66,1.66,0,0,1-1,2.13h0a1.78,1.78,0,0,1-.56.1h0A1.67,1.67,0,0,1,183,269.11Zm5.25-1.81a1.68,1.68,0,0,1,1.12-2.09h0a1.67,1.67,0,0,1,2.08,1.12h0a1.66,1.66,0,0,1-1.11,2.08h0a2.09,2.09,0,0,1-.48.08h0A1.68,1.68,0,0,1,188.21,267.3Zm5.34-1.56a1.67,1.67,0,0,1,1.2-2h0a1.66,1.66,0,0,1,2,1.2h0a1.68,1.68,0,0,1-1.21,2h0a1.92,1.92,0,0,1-.41.05h0A1.68,1.68,0,0,1,193.55,265.74Zm428.23,0a1.67,1.67,0,0,1,.12-2.36h0a1.68,1.68,0,0,1,2.36.12h0a1.66,1.66,0,0,1-.12,2.36h0a1.66,1.66,0,0,1-1.11.44h0A1.67,1.67,0,0,1,621.78,265.7Zm-422.84-1.29a1.67,1.67,0,0,1,1.28-2h0a1.67,1.67,0,0,1,2,1.28h0a1.67,1.67,0,0,1-1.28,2h0l-.36,0h0A1.69,1.69,0,0,1,198.94,264.41Zm5.45-1.14a1.69,1.69,0,0,1,1.34-1.95h0a1.69,1.69,0,0,1,2,1.35h0a1.67,1.67,0,0,1-1.34,1.94h0l-.31,0h0A1.67,1.67,0,0,1,204.39,263.27Zm5.47-1a1.68,1.68,0,0,1,1.39-1.92h0a1.67,1.67,0,0,1,1.91,1.39h0a1.65,1.65,0,0,1-1.38,1.91h0a.83.83,0,0,1-.27,0h0A1.67,1.67,0,0,1,209.86,262.29Zm5.5-.87a1.65,1.65,0,0,1,1.41-1.88h0a1.67,1.67,0,0,1,1.9,1.41h0a1.67,1.67,0,0,1-1.42,1.89h0l-.24,0h0A1.67,1.67,0,0,1,215.36,261.42Zm402.63.41a1.67,1.67,0,0,1-.07-2.36h0a1.65,1.65,0,0,1,2.36-.06h0a1.66,1.66,0,0,1,.07,2.36h0a1.67,1.67,0,0,1-1.21.52h0A1.63,1.63,0,0,1,618,261.83Zm-397.13-1.19a1.67,1.67,0,0,1,1.43-1.87h0a1.67,1.67,0,0,1,1.88,1.44h0a1.66,1.66,0,0,1-1.42,1.88h-.24A1.67,1.67,0,0,1,220.86,260.64Zm5.52-.73a1.68,1.68,0,0,1,1.44-1.88h0a1.67,1.67,0,0,1,1.87,1.44h0a1.66,1.66,0,0,1-1.44,1.87h0a.83.83,0,0,1-.22,0h0A1.68,1.68,0,0,1,226.38,259.91Zm5.52-.73a1.67,1.67,0,0,1,1.42-1.88h0a1.69,1.69,0,0,1,1.89,1.44h0a1.68,1.68,0,0,1-1.44,1.88h-.22A1.65,1.65,0,0,1,231.9,259.18Zm5.5-.74a1.69,1.69,0,0,1,1.43-1.9h0a1.65,1.65,0,0,1,1.88,1.42h0a1.66,1.66,0,0,1-1.41,1.89h-.24A1.68,1.68,0,0,1,237.4,258.44Zm5.52-.82a1.65,1.65,0,0,1,1.38-1.91h0a1.67,1.67,0,0,1,1.92,1.38h0a1.67,1.67,0,0,1-1.38,1.91h0a.92.92,0,0,1-.28,0h0A1.65,1.65,0,0,1,242.92,257.62Zm371,.63a1.67,1.67,0,0,1-.24-2.36h0a1.68,1.68,0,0,1,2.36-.23h0a1.68,1.68,0,0,1,.23,2.35h0a1.68,1.68,0,0,1-1.29.62h0A1.68,1.68,0,0,1,613.9,258.25Zm-365.5-1.54a1.67,1.67,0,0,1,1.35-1.94h0a1.66,1.66,0,0,1,1.94,1.34h0a1.67,1.67,0,0,1-1.34,1.95h0l-.3,0h0A1.69,1.69,0,0,1,248.4,256.71Zm5.47-1a1.67,1.67,0,0,1,1.29-2h0a1.67,1.67,0,0,1,2,1.28h0a1.68,1.68,0,0,1-1.28,2h0a1.42,1.42,0,0,1-.36,0h0A1.67,1.67,0,0,1,253.87,255.67Zm5.43-1.22a1.66,1.66,0,0,1,1.21-2h0a1.66,1.66,0,0,1,2,1.19h0a1.68,1.68,0,0,1-1.2,2h0a2,2,0,0,1-.42.06h0A1.68,1.68,0,0,1,259.3,254.45Zm350.26.49a1.68,1.68,0,0,1-.38-2.33h0a1.66,1.66,0,0,1,2.33-.39h0a1.67,1.67,0,0,1,.38,2.34h0a1.68,1.68,0,0,1-1.36.69h0A1.67,1.67,0,0,1,609.56,254.94ZM264.67,253a1.7,1.7,0,0,1,1.12-2.1h0a1.68,1.68,0,0,1,2.08,1.11h0a1.67,1.67,0,0,1-1.1,2.09h0a1.76,1.76,0,0,1-.49.07h0A1.7,1.7,0,0,1,264.67,253Zm5.31-1.69a1.65,1.65,0,0,1,1-2.14h0a1.65,1.65,0,0,1,2.14,1h0a1.67,1.67,0,0,1-1,2.14h0a1.9,1.9,0,0,1-.57.1h0A1.66,1.66,0,0,1,270,251.33Zm335,.54a1.68,1.68,0,0,1-.52-2.31h0a1.69,1.69,0,0,1,2.32-.51h0a1.67,1.67,0,0,1,.5,2.31h0a1.65,1.65,0,0,1-1.4.78h0A1.66,1.66,0,0,1,605,251.87Zm-329.86-2.52a1.66,1.66,0,0,1,.86-2.2h0a1.67,1.67,0,0,1,2.21.85h0a1.69,1.69,0,0,1-.87,2.2h0a1.58,1.58,0,0,1-.67.14h0A1.66,1.66,0,0,1,275.17,249.35ZM600.33,249a1.67,1.67,0,0,1-.6-2.29h0a1.66,1.66,0,0,1,2.28-.6h0a1.68,1.68,0,0,1,.6,2.29h0a1.68,1.68,0,0,1-1.45.83h0A1.73,1.73,0,0,1,600.33,249Zm-320.1-2a1.68,1.68,0,0,1,.7-2.26h0a1.66,1.66,0,0,1,2.25.71h0a1.67,1.67,0,0,1-.7,2.26h0a1.75,1.75,0,0,1-.77.19h0A1.68,1.68,0,0,1,280.23,247.05Zm315.29-.71a1.67,1.67,0,0,1-.69-2.26h0a1.68,1.68,0,0,1,2.26-.68h0a1.65,1.65,0,0,1,.69,2.26h0a1.67,1.67,0,0,1-1.47.88h0A1.63,1.63,0,0,1,595.52,246.34Zm-310.41-1.93a1.68,1.68,0,0,1,.54-2.31h0a1.67,1.67,0,0,1,2.3.53h0a1.68,1.68,0,0,1-.53,2.31h0a1.69,1.69,0,0,1-.88.26h0A1.68,1.68,0,0,1,285.11,244.41Zm305.51-.6a1.67,1.67,0,0,1-.75-2.24h0a1.67,1.67,0,0,1,2.24-.74h0a1.67,1.67,0,0,1,.75,2.24h0a1.65,1.65,0,0,1-1.5.92h0A1.53,1.53,0,0,1,590.62,243.81ZM289.79,241.4a1.66,1.66,0,0,1,.36-2.33h0a1.67,1.67,0,0,1,2.34.35h0a1.67,1.67,0,0,1-.37,2.34h0a1.61,1.61,0,0,1-1,.33h0A1.71,1.71,0,0,1,289.79,241.4Zm295.86,0a1.65,1.65,0,0,1-.79-2.22h0a1.65,1.65,0,0,1,2.22-.78h0a1.66,1.66,0,0,1,.8,2.22h0a1.69,1.69,0,0,1-1.52,1h0A1.54,1.54,0,0,1,585.65,241.38Zm-5-2.36a1.66,1.66,0,0,1-.81-2.22h0A1.68,1.68,0,0,1,582,236h0a1.68,1.68,0,0,1,.81,2.23h0a1.69,1.69,0,0,1-1.52,1h0A1.59,1.59,0,0,1,580.63,239Zm-286.4-1a1.66,1.66,0,0,1,.19-2.35h0a1.66,1.66,0,0,1,2.35.19h0a1.66,1.66,0,0,1-.19,2.35h0a1.63,1.63,0,0,1-1.08.4h0A1.66,1.66,0,0,1,294.23,238.05Zm281.35-1.36h0a1.67,1.67,0,0,1-.81-2.21h0a1.67,1.67,0,0,1,2.22-.82h0a1.68,1.68,0,0,1,.81,2.23h0a1.67,1.67,0,0,1-1.52,1h0A1.78,1.78,0,0,1,575.58,236.69ZM298.41,234.4a1.68,1.68,0,0,1,0-2.38h0a1.66,1.66,0,0,1,2.36,0h0a1.65,1.65,0,0,1,0,2.36h0a1.7,1.7,0,0,1-1.16.48h0A1.71,1.71,0,0,1,298.41,234.4Zm272.13-.06h0a1.69,1.69,0,0,1-.82-2.23h0a1.69,1.69,0,0,1,2.23-.8h0a1.66,1.66,0,0,1,.8,2.22h0a1.68,1.68,0,0,1-1.51,1h0A1.57,1.57,0,0,1,570.54,234.34Zm-5-2.39a1.66,1.66,0,0,1-.77-2.23h0a1.66,1.66,0,0,1,2.23-.78h0a1.68,1.68,0,0,1,.78,2.24h0a1.69,1.69,0,0,1-1.52.93h0A1.57,1.57,0,0,1,565.49,232Zm-263.16-1.5a1.66,1.66,0,0,1-.12-2.36h0a1.66,1.66,0,0,1,2.36-.12h0a1.66,1.66,0,0,1,.12,2.35h0a1.65,1.65,0,0,1-1.23.56h0A1.68,1.68,0,0,1,302.33,230.45Zm258.14-1a1.66,1.66,0,0,1-.7-2.25h0a1.65,1.65,0,0,1,2.25-.71h0a1.67,1.67,0,0,1,.71,2.25h0a1.69,1.69,0,0,1-1.49.9h0A1.65,1.65,0,0,1,560.47,229.43Zm-4.94-2.69a1.67,1.67,0,0,1-.62-2.28h0a1.67,1.67,0,0,1,2.28-.63h0a1.67,1.67,0,0,1,.63,2.29h0a1.69,1.69,0,0,1-1.46.83h0A1.68,1.68,0,0,1,555.53,226.74ZM306,226.27a1.66,1.66,0,0,1-.27-2.35h0a1.66,1.66,0,0,1,2.34-.27h0a1.68,1.68,0,0,1,.27,2.36h0a1.68,1.68,0,0,1-1.31.62h0A1.6,1.6,0,0,1,306,226.27Zm244.7-2.42a1.67,1.67,0,0,1-.54-2.3h0a1.68,1.68,0,0,1,2.31-.54h0a1.67,1.67,0,0,1,.53,2.31h0a1.68,1.68,0,0,1-1.42.79h0A1.69,1.69,0,0,1,550.7,223.85Zm-241.29-2a1.66,1.66,0,0,1-.39-2.33h0a1.68,1.68,0,0,1,2.33-.39h0a1.69,1.69,0,0,1,.39,2.33h0a1.68,1.68,0,0,1-1.36.7h0A1.65,1.65,0,0,1,309.41,221.88ZM546,220.76a1.67,1.67,0,0,1-.42-2.32h0a1.66,1.66,0,0,1,2.32-.44h0a1.66,1.66,0,0,1,.43,2.33h0a1.66,1.66,0,0,1-1.38.73h0A1.69,1.69,0,0,1,546,220.76Zm-4.57-3.32a1.7,1.7,0,0,1-.3-2.36h0a1.67,1.67,0,0,1,2.34-.3h0a1.67,1.67,0,0,1,.32,2.34h0a1.67,1.67,0,0,1-1.34.66h0A1.71,1.71,0,0,1,541.41,217.44Zm-228.83-.1a1.69,1.69,0,0,1-.49-2.32h0a1.66,1.66,0,0,1,2.31-.49h0a1.66,1.66,0,0,1,.5,2.3h0a1.62,1.62,0,0,1-1.4.77h0A1.74,1.74,0,0,1,312.58,217.34ZM537,213.86a1.69,1.69,0,0,1-.16-2.36h0a1.67,1.67,0,0,1,2.36-.17h0a1.68,1.68,0,0,1,.17,2.36h0a1.71,1.71,0,0,1-1.27.57h0A1.74,1.74,0,0,1,537,213.86Zm-221.47-1.23a1.65,1.65,0,0,1-.58-2.28h0a1.67,1.67,0,0,1,2.28-.59h0a1.68,1.68,0,0,1,.6,2.29h0a1.66,1.66,0,0,1-1.44.83h0A1.7,1.7,0,0,1,315.56,212.63ZM532.88,210h0a1.65,1.65,0,0,1,0-2.36h0a1.66,1.66,0,0,1,2.36,0h0a1.67,1.67,0,0,1,0,2.37h0a1.67,1.67,0,0,1-1.18.49h0A1.71,1.71,0,0,1,532.88,210Zm-214.52-2.16a1.68,1.68,0,0,1-.66-2.28h0a1.66,1.66,0,0,1,2.26-.65h0a1.66,1.66,0,0,1,.67,2.27h0a1.67,1.67,0,0,1-1.47.86h0A1.64,1.64,0,0,1,318.36,207.83Zm210.65-2a1.68,1.68,0,0,1,.18-2.36h0a1.68,1.68,0,0,1,2.36.19h0a1.67,1.67,0,0,1-.19,2.35h0a1.64,1.64,0,0,1-1.08.4h0A1.65,1.65,0,0,1,529,205.82Zm-208-2.88a1.67,1.67,0,0,1-.73-2.25h0a1.67,1.67,0,0,1,2.25-.73h0a1.66,1.66,0,0,1,.73,2.25h0a1.67,1.67,0,0,1-1.49.9h0A1.69,1.69,0,0,1,321,202.94Zm204.49-1.61h0a1.66,1.66,0,0,1,.39-2.33h0a1.66,1.66,0,0,1,2.33.39h0a1.69,1.69,0,0,1-.39,2.33h0a1.67,1.67,0,0,1-1,.31h0A1.64,1.64,0,0,1,525.49,201.33Zm-202-3.35a1.66,1.66,0,0,1-.77-2.24h0A1.67,1.67,0,0,1,325,195h0a1.68,1.68,0,0,1,.78,2.23h0a1.68,1.68,0,0,1-1.52.94h0A1.64,1.64,0,0,1,323.51,198Zm198.89-1.47a1.68,1.68,0,0,1,.64-2.29h0a1.66,1.66,0,0,1,2.27.64h0a1.66,1.66,0,0,1-.62,2.27h0a1.59,1.59,0,0,1-.83.22h0A1.7,1.7,0,0,1,522.4,196.51ZM325.91,193a1.68,1.68,0,0,1-.81-2.22h0a1.68,1.68,0,0,1,2.22-.81h0a1.68,1.68,0,0,1,.81,2.22h0a1.66,1.66,0,0,1-1.52,1h0A1.62,1.62,0,0,1,325.91,193Zm193.94-1.6h0a1.67,1.67,0,0,1,.88-2.2h0a1.7,1.7,0,0,1,2.2.88h0a1.69,1.69,0,0,1-.89,2.2h0a1.51,1.51,0,0,1-.65.13h0A1.68,1.68,0,0,1,519.85,191.36Zm-191.61-3.45a1.65,1.65,0,0,1-.83-2.2h0a1.65,1.65,0,0,1,2.2-.84h0a1.67,1.67,0,0,1,.84,2.21h0a1.67,1.67,0,0,1-1.53,1h0A1.69,1.69,0,0,1,328.24,187.91Zm189.67-2h0a1.66,1.66,0,0,1,1.14-2.07h0a1.67,1.67,0,0,1,2.07,1.13h0a1.68,1.68,0,0,1-1.14,2.08h0a1.82,1.82,0,0,1-.46.06h0A1.67,1.67,0,0,1,517.91,185.94Zm-187.39-3.1a1.66,1.66,0,0,1-.85-2.2h0a1.66,1.66,0,0,1,2.2-.85h0a1.68,1.68,0,0,1,.85,2.21h0a1.68,1.68,0,0,1-1.52,1h0A1.6,1.6,0,0,1,330.52,182.84Zm186.13-2.53h0A1.67,1.67,0,0,1,518,178.4h0a1.66,1.66,0,0,1,1.91,1.39h0a1.68,1.68,0,0,1-1.38,1.92h0l-.27,0h0A1.68,1.68,0,0,1,516.65,180.31Zm-183.88-2.55a1.68,1.68,0,0,1-.86-2.21h0a1.68,1.68,0,0,1,2.2-.85h0a1.67,1.67,0,0,1,.86,2.2h0a1.68,1.68,0,0,1-1.53,1h0A1.76,1.76,0,0,1,332.77,177.76Zm183.33-3.19a1.68,1.68,0,0,1,1.62-1.72h0a1.66,1.66,0,0,1,1.73,1.61h0a1.67,1.67,0,0,1-1.62,1.73h-.05A1.68,1.68,0,0,1,516.1,174.57ZM335,172.67a1.68,1.68,0,0,1-.85-2.21h0a1.67,1.67,0,0,1,2.21-.85h0a1.67,1.67,0,0,1,.84,2.21h0a1.65,1.65,0,0,1-1.52,1h0A1.63,1.63,0,0,1,335,172.67Zm182.76-2a1.67,1.67,0,0,1-1.56-1.77h0A1.66,1.66,0,0,1,518,167.3h0a1.66,1.66,0,0,1,1.55,1.77h0a1.67,1.67,0,0,1-1.66,1.56h-.11Zm-180.49-3a1.67,1.67,0,0,1-.84-2.22h0a1.67,1.67,0,0,1,2.22-.83h0a1.66,1.66,0,0,1,.83,2.21h0a1.66,1.66,0,0,1-1.52,1h0A1.67,1.67,0,0,1,337.28,167.59Zm181-2.5a1.67,1.67,0,0,1-1.41-1.9h0a1.67,1.67,0,0,1,1.89-1.41h0a1.67,1.67,0,0,1,1.42,1.89h0a1.67,1.67,0,0,1-1.65,1.43h-.25Zm-178.64-2.56a1.68,1.68,0,0,1-.81-2.23h0a1.67,1.67,0,0,1,2.22-.81h0a1.68,1.68,0,0,1,.82,2.23h0a1.63,1.63,0,0,1-1.51,1h0A1.69,1.69,0,0,1,339.59,162.53Zm179.52-2.93a1.67,1.67,0,0,1-1.3-2h0a1.66,1.66,0,0,1,2-1.3h0a1.68,1.68,0,0,1,1.31,2h0a1.69,1.69,0,0,1-1.64,1.34h0ZM342,157.49a1.67,1.67,0,0,1-.77-2.24h0a1.67,1.67,0,0,1,2.24-.76h0a1.66,1.66,0,0,1,.76,2.23h0a1.65,1.65,0,0,1-1.49.94h0A1.74,1.74,0,0,1,342,157.49Zm178.3-3.34a1.66,1.66,0,0,1-1.23-2h0a1.66,1.66,0,0,1,2-1.24h0a1.69,1.69,0,0,1,1.24,2h0a1.69,1.69,0,0,1-1.63,1.28h0A1.81,1.81,0,0,1,520.27,154.15ZM344.43,152.5a1.69,1.69,0,0,1-.71-2.26h0a1.69,1.69,0,0,1,2.26-.71h0a1.68,1.68,0,0,1,.72,2.25h0a1.67,1.67,0,0,1-1.5.91h0A1.68,1.68,0,0,1,344.43,152.5Zm177.16-3.75a1.69,1.69,0,0,1-1.21-2h0a1.68,1.68,0,0,1,2-1.2h0a1.67,1.67,0,0,1,1.21,2h0A1.68,1.68,0,0,1,522,148.8h0A2,2,0,0,1,521.59,148.75ZM347,147.57a1.68,1.68,0,0,1-.66-2.27h0a1.68,1.68,0,0,1,2.28-.65h0a1.68,1.68,0,0,1,.66,2.27h0a1.71,1.71,0,0,1-1.48.86h0A1.6,1.6,0,0,1,347,147.57ZM523,143.36a1.67,1.67,0,0,1-1.21-2h0a1.67,1.67,0,0,1,2-1.22h0a1.67,1.67,0,0,1,1.22,2h0a1.67,1.67,0,0,1-1.62,1.27h0A2,2,0,0,1,523,143.36Zm-173.21-.64a1.68,1.68,0,0,1-.58-2.29h0a1.68,1.68,0,0,1,2.3-.57h0a1.66,1.66,0,0,1,.57,2.29h0a1.68,1.68,0,0,1-1.43.82h0A1.59,1.59,0,0,1,349.76,142.72Zm2.9-4.74a1.67,1.67,0,0,1-.49-2.31h0a1.68,1.68,0,0,1,2.32-.49h0a1.68,1.68,0,0,1,.48,2.32h0a1.66,1.66,0,0,1-1.4.75h0A1.69,1.69,0,0,1,352.66,138Zm171.65,0a1.67,1.67,0,0,1-1.27-2h0a1.67,1.67,0,0,1,2-1.27h0a1.67,1.67,0,0,1,1.27,2h0a1.67,1.67,0,0,1-1.62,1.31h0A1.5,1.5,0,0,1,524.31,138Zm-168.56-4.61a1.67,1.67,0,0,1-.4-2.33h0a1.68,1.68,0,0,1,2.34-.39h0a1.69,1.69,0,0,1,.39,2.33h0a1.68,1.68,0,0,1-1.36.7h0A1.62,1.62,0,0,1,355.75,133.35Zm169.73-.82a1.68,1.68,0,0,1-1.36-1.94h0a1.66,1.66,0,0,1,1.94-1.35h0a1.66,1.66,0,0,1,1.36,1.93h0a1.68,1.68,0,0,1-1.65,1.38h0ZM359,128.85a1.68,1.68,0,0,1-.29-2.35h0a1.66,1.66,0,0,1,2.34-.29h0a1.66,1.66,0,0,1,.3,2.34h0a1.67,1.67,0,0,1-1.32.64h0A1.72,1.72,0,0,1,359,128.85ZM526.38,127a1.67,1.67,0,0,1-1.49-1.84h0a1.68,1.68,0,0,1,1.84-1.49h0a1.67,1.67,0,0,1,1.48,1.84h0a1.67,1.67,0,0,1-1.66,1.49h-.17Zm-163.94-2.56a1.68,1.68,0,0,1-.21-2.36h0a1.66,1.66,0,0,1,2.35-.22h0a1.68,1.68,0,0,1,.22,2.37h0a1.7,1.7,0,0,1-1.29.59h0A1.75,1.75,0,0,1,362.44,124.48Zm164.42-3a1.67,1.67,0,0,1-1.65-1.69h0a1.67,1.67,0,0,1,1.69-1.65h0a1.67,1.67,0,0,1,1.65,1.69h0a1.66,1.66,0,0,1-1.67,1.65h0ZM366,120.23a1.67,1.67,0,0,1-.12-2.36h0a1.67,1.67,0,0,1,2.36-.11h0a1.65,1.65,0,0,1,.13,2.35h0a1.69,1.69,0,0,1-1.25.56h0A1.71,1.71,0,0,1,366,120.23Zm3.76-4.1a1.66,1.66,0,0,1,0-2.36h0a1.67,1.67,0,0,1,2.36,0h0a1.67,1.67,0,0,1,0,2.37h0a1.67,1.67,0,0,1-1.19.5h0A1.68,1.68,0,0,1,369.8,116.13ZM525,114.45a1.67,1.67,0,0,1,1.48-1.84h0a1.68,1.68,0,0,1,1.84,1.49h0a1.67,1.67,0,0,1-1.5,1.84h-.16A1.66,1.66,0,0,1,525,114.45Zm-151.27-2.26a1.68,1.68,0,0,1,.07-2.37h0a1.66,1.66,0,0,1,2.36.06h0a1.66,1.66,0,0,1-.07,2.36h0a1.63,1.63,0,0,1-1.14.46h0A1.7,1.7,0,0,1,373.71,112.19Zm150.36-3a1.69,1.69,0,0,1,1.23-2h0a1.7,1.7,0,0,1,2,1.24h0a1.69,1.69,0,0,1-1.24,2h0a1.78,1.78,0,0,1-.39,0h0A1.68,1.68,0,0,1,524.07,109.2Zm-146.3-.82a1.67,1.67,0,0,1,.15-2.36h0a1.68,1.68,0,0,1,2.36.15h0a1.68,1.68,0,0,1-.15,2.36h0a1.64,1.64,0,0,1-1.1.41h0A1.68,1.68,0,0,1,377.77,108.38Zm4.2-3.65a1.67,1.67,0,0,1,.23-2.35h0a1.68,1.68,0,0,1,2.36.23h0a1.67,1.67,0,0,1-.24,2.35h0a1.62,1.62,0,0,1-1.06.38h0A1.67,1.67,0,0,1,382,104.73Zm140.49-.61h0a1.65,1.65,0,0,1,.93-2.16h0a1.67,1.67,0,0,1,2.18.93h0a1.66,1.66,0,0,1-.94,2.16h0a1.5,1.5,0,0,1-.62.13h0A1.66,1.66,0,0,1,522.46,104.12Zm-136.17-2.88a1.67,1.67,0,0,1,.33-2.34h0a1.68,1.68,0,0,1,2.34.31h0a1.69,1.69,0,0,1-.33,2.36h0a1.64,1.64,0,0,1-1,.33h0A1.71,1.71,0,0,1,386.29,101.24ZM520.16,99.3a1.68,1.68,0,0,1,.65-2.27h0a1.64,1.64,0,0,1,2.27.65h0a1.66,1.66,0,0,1-.63,2.27h0a1.78,1.78,0,0,1-.82.21h0A1.68,1.68,0,0,1,520.16,99.3ZM390.75,97.91a1.69,1.69,0,0,1,.41-2.33h0a1.68,1.68,0,0,1,2.33.41h0a1.67,1.67,0,0,1-.41,2.33h0a1.68,1.68,0,0,1-1,.3h0A1.65,1.65,0,0,1,390.75,97.91Zm4.58-3.16a1.68,1.68,0,0,1,.49-2.31h0a1.69,1.69,0,0,1,2.32.49h0a1.68,1.68,0,0,1-.5,2.32h0a1.65,1.65,0,0,1-.9.26h0A1.65,1.65,0,0,1,395.33,94.75Zm122,0a1.68,1.68,0,0,1,.36-2.34h0a1.66,1.66,0,0,1,2.33.37h0a1.67,1.67,0,0,1-.35,2.33h0a1.7,1.7,0,0,1-1,.32h0A1.64,1.64,0,0,1,517.28,94.8ZM400,91.76a1.68,1.68,0,0,1,.58-2.3h0a1.66,1.66,0,0,1,2.29.58h0a1.67,1.67,0,0,1-.58,2.29h0a1.56,1.56,0,0,1-.85.23h0A1.69,1.69,0,0,1,400,91.76Zm113.84-1.12a1.67,1.67,0,0,1,.1-2.35h0a1.67,1.67,0,0,1,2.36.09h0a1.67,1.67,0,0,1-.1,2.36h0a1.63,1.63,0,0,1-1.14.45h0A1.64,1.64,0,0,1,513.86,90.64ZM404.82,89a1.67,1.67,0,0,1,.66-2.27h0a1.67,1.67,0,0,1,2.28.67h0a1.7,1.7,0,0,1-.67,2.27h0a1.71,1.71,0,0,1-.8.21h0A1.66,1.66,0,0,1,404.82,89ZM510,86.89a1.66,1.66,0,0,1-.16-2.35h0a1.67,1.67,0,0,1,2.37-.16h0a1.68,1.68,0,0,1,.15,2.36h0a1.7,1.7,0,0,1-1.26.57h0A1.65,1.65,0,0,1,510,86.89Zm-100.29-.57a1.68,1.68,0,0,1,.75-2.25h0a1.67,1.67,0,0,1,2.24.76h0a1.68,1.68,0,0,1-.75,2.24h0a1.63,1.63,0,0,1-.75.18h0A1.68,1.68,0,0,1,409.72,86.32Zm5-2.45a1.67,1.67,0,0,1,.84-2.21h0a1.66,1.66,0,0,1,2.2.83h0a1.66,1.66,0,0,1-.82,2.21h0a1.68,1.68,0,0,1-.69.15h0A1.67,1.67,0,0,1,414.71,83.87Zm91.06-.31a1.7,1.7,0,0,1-.39-2.34h0a1.67,1.67,0,0,1,2.33-.39h0a1.66,1.66,0,0,1,.4,2.32h0a1.68,1.68,0,0,1-1.37.71h0A1.76,1.76,0,0,1,505.77,83.56Zm-86-1.94a1.69,1.69,0,0,1,.93-2.19h0a1.67,1.67,0,0,1,2.17.93h0a1.66,1.66,0,0,1-.91,2.17h0a1.61,1.61,0,0,1-.64.12h0A1.68,1.68,0,0,1,419.79,81.62Zm81.45-1a1.69,1.69,0,0,1-.63-2.29h0a1.67,1.67,0,0,1,2.28-.61h0a1.66,1.66,0,0,1,.62,2.27h0a1.66,1.66,0,0,1-1.45.85h0A1.6,1.6,0,0,1,501.24,80.65ZM425,79.55a1.65,1.65,0,0,1,1-2.13h0a1.66,1.66,0,0,1,2.14,1h0a1.69,1.69,0,0,1-1,2.15h0a1.9,1.9,0,0,1-.57.1h0A1.66,1.66,0,0,1,425,79.55Zm5.23-1.86a1.67,1.67,0,0,1,1.08-2.1h0a1.68,1.68,0,0,1,2.11,1.09h0a1.67,1.67,0,0,1-1.08,2.1h0a1.84,1.84,0,0,1-.51.07h0A1.68,1.68,0,0,1,430.2,77.69Zm66.22.52h0a1.67,1.67,0,0,1-.84-2.21h0a1.66,1.66,0,0,1,2.2-.85h0a1.67,1.67,0,0,1,.85,2.21h0a1.68,1.68,0,0,1-1.53,1h0A1.69,1.69,0,0,1,496.42,78.21ZM435.52,76a1.66,1.66,0,0,1,1.16-2h0a1.68,1.68,0,0,1,2.06,1.16h0a1.67,1.67,0,0,1-1.17,2.06h0a1.4,1.4,0,0,1-.45.06h0A1.65,1.65,0,0,1,435.52,76Zm55.87.22a1.68,1.68,0,0,1-1.05-2.12h0a1.68,1.68,0,0,1,2.12-1h0a1.68,1.68,0,0,1,1.06,2.12h0a1.71,1.71,0,0,1-1.6,1.13h0A1.89,1.89,0,0,1,491.39,76.25ZM440.88,74.6a1.69,1.69,0,0,1,1.25-2h0a1.66,1.66,0,0,1,2,1.25h0a1.65,1.65,0,0,1-1.23,2h0a1.78,1.78,0,0,1-.39,0h0A1.69,1.69,0,0,1,440.88,74.6Zm45.31.14a1.67,1.67,0,0,1-1.23-2h0a1.67,1.67,0,0,1,2-1.23h0a1.68,1.68,0,0,1,1.23,2h0a1.67,1.67,0,0,1-1.63,1.28h0A1.74,1.74,0,0,1,486.19,74.74Zm-39.88-1.38a1.66,1.66,0,0,1,1.32-2h0a1.66,1.66,0,0,1,2,1.32h0a1.67,1.67,0,0,1-1.32,2h0a1.73,1.73,0,0,1-.32,0h0A1.68,1.68,0,0,1,446.31,73.36Zm5.47-1a1.67,1.67,0,0,1,1.41-1.9h0a1.69,1.69,0,0,1,1.9,1.42h0a1.67,1.67,0,0,1-1.42,1.89h0l-.24,0h0A1.67,1.67,0,0,1,451.78,72.36Zm29.09,1.3h0a1.68,1.68,0,0,1-1.39-1.92h0a1.69,1.69,0,0,1,1.92-1.38h0a1.66,1.66,0,0,1,1.38,1.92h0a1.66,1.66,0,0,1-1.65,1.4h0A1.1,1.1,0,0,1,480.87,73.66Zm-23.57-2a1.66,1.66,0,0,1,1.5-1.82h0a1.68,1.68,0,0,1,1.82,1.51h0a1.67,1.67,0,0,1-1.51,1.82H459A1.65,1.65,0,0,1,457.3,71.61ZM475.47,73h0a1.68,1.68,0,0,1-1.53-1.8h0a1.69,1.69,0,0,1,1.82-1.53h0a1.67,1.67,0,0,1,1.52,1.82h0A1.67,1.67,0,0,1,475.62,73h-.15Zm-12.64-1.84a1.68,1.68,0,0,1,1.61-1.74h0A1.69,1.69,0,0,1,466.18,71h0a1.7,1.7,0,0,1-1.61,1.74h-.06A1.69,1.69,0,0,1,462.83,71.15ZM470,72.7h0A1.66,1.66,0,0,1,468.4,71h0a1.67,1.67,0,0,1,1.7-1.64h0a1.67,1.67,0,0,1,1.64,1.7h0a1.67,1.67,0,0,1-1.67,1.64h0Z" transform="translate(-131.66 -62.44)"/><path class="cls-1" d="M454.19,407.65a1.57,1.57,0,0,1-.65-.12,1.62,1.62,0,0,1-.55-.37,1.48,1.48,0,0,1-.35-.54,1.57,1.57,0,0,1-.14-.64,1.68,1.68,0,0,1,.49-1.18,1.64,1.64,0,0,1,.26-.2,1.18,1.18,0,0,1,.29-.16,1.86,1.86,0,0,1,.31-.1,2.43,2.43,0,0,1,.66,0,1.86,1.86,0,0,1,.31.1,1.18,1.18,0,0,1,.29.16,1.22,1.22,0,0,1,.25.2,1.69,1.69,0,0,1,.5,1.18,1.57,1.57,0,0,1-.14.64,1.39,1.39,0,0,1-.36.54,1.49,1.49,0,0,1-.54.37A1.54,1.54,0,0,1,454.19,407.65Z" transform="translate(-131.66 -62.44)"/></g><path class="cls-3" d="M315.12,290.36a143.84,143.84,0,0,0-69.05-156.25,141.33,141.33,0,0,0,8.22,86.41C266,247.83,289.69,275,315.12,290.36Z" transform="translate(-131.66 -62.44)"/><path class="cls-3" d="M250.45,145.53A1.11,1.11,0,0,1,252,146c5.29,9.73,10.69,19.7,16.06,29.87a89.77,89.77,0,0,0,.21-19,1.11,1.11,0,0,1,2.22-.21,91.84,91.84,0,0,1-.64,22.59c3.61,6.88,7.2,13.86,10.71,20.93a194.45,194.45,0,0,0,3.75-26.85,1.11,1.11,0,1,1,2.22.15,194.52,194.52,0,0,1-4.39,29.91c3.27,6.67,6.47,13.41,9.55,20.22a117.74,117.74,0,0,0,6.52-30.71,1.11,1.11,0,0,1,1.2-1,1.1,1.1,0,0,1,1,1.19A120.19,120.19,0,0,1,293,226.55q3.82,8.56,7.37,17.29a114.55,114.55,0,0,0,8.17-25.71,1.11,1.11,0,0,1,2.19.42,116.52,116.52,0,0,1-9.22,28.13q3.3,8.28,6.27,16.67c2.24-5.85,4.27-11.82,6-17.8a1.12,1.12,0,0,1,2.14.63c-2,6.88-4.4,13.76-7.05,20.45a318.63,318.63,0,0,1,15.38,64.42,1.11,1.11,0,0,1-1,1.24,1,1,0,0,1-.55-.07,1.11,1.11,0,0,1-.69-.9A314.58,314.58,0,0,0,307.34,269a76.15,76.15,0,0,1-26.81-12.24,1.11,1.11,0,1,1,1.3-1.81,74.23,74.23,0,0,0,24.64,11.52q-3.48-10.07-7.45-20a92.14,92.14,0,0,1-22.6-5.83,91.17,91.17,0,0,1-12-5.83,1.12,1.12,0,1,1,1.12-1.93A90,90,0,0,0,298,244.12q-4.23-10.41-8.88-20.6a90.8,90.8,0,0,1-35.84-17.1,1.1,1.1,0,0,1-.19-1.56,1.12,1.12,0,0,1,1.57-.19A89,89,0,0,0,288,221q-5.62-12.21-11.62-24.1a1.24,1.24,0,0,1-.27,0q-3.29-1.06-6.48-2.34a106.58,106.58,0,0,1-23.34-12.89,1.11,1.11,0,1,1,1.31-1.8A104.39,104.39,0,0,0,275,194.06c-3.66-7.21-7.38-14.33-11.1-21.34a101.6,101.6,0,0,1-18.54-10.39,1.12,1.12,0,0,1,1.29-1.82,98.91,98.91,0,0,0,15.54,9C258.07,161.9,254,154.4,250,147A1.11,1.11,0,0,1,250.45,145.53Z" transform="translate(-131.66 -62.44)"/><path class="cls-4" d="M250.45,145.53A1.11,1.11,0,0,1,252,146c5.29,9.73,10.69,19.7,16.06,29.87a89.77,89.77,0,0,0,.21-19,1.11,1.11,0,0,1,2.22-.21,91.84,91.84,0,0,1-.64,22.59c3.61,6.88,7.2,13.86,10.71,20.93a194.45,194.45,0,0,0,3.75-26.85,1.11,1.11,0,1,1,2.22.15,194.52,194.52,0,0,1-4.39,29.91c3.27,6.67,6.47,13.41,9.55,20.22a117.74,117.74,0,0,0,6.52-30.71,1.11,1.11,0,0,1,1.2-1,1.1,1.1,0,0,1,1,1.19A120.19,120.19,0,0,1,293,226.55q3.82,8.56,7.37,17.29a114.55,114.55,0,0,0,8.17-25.71,1.11,1.11,0,0,1,2.19.42,116.52,116.52,0,0,1-9.22,28.13q3.3,8.28,6.27,16.67c2.24-5.85,4.27-11.82,6-17.8a1.12,1.12,0,0,1,2.14.63c-2,6.88-4.4,13.76-7.05,20.45a318.63,318.63,0,0,1,15.38,64.42,1.11,1.11,0,0,1-1,1.24,1,1,0,0,1-.55-.07,1.11,1.11,0,0,1-.69-.9A314.58,314.58,0,0,0,307.34,269a76.15,76.15,0,0,1-26.81-12.24,1.11,1.11,0,1,1,1.3-1.81,74.23,74.23,0,0,0,24.64,11.52q-3.48-10.07-7.45-20a92.14,92.14,0,0,1-22.6-5.83,91.17,91.17,0,0,1-12-5.83,1.12,1.12,0,1,1,1.12-1.93A90,90,0,0,0,298,244.12q-4.23-10.41-8.88-20.6a90.8,90.8,0,0,1-35.84-17.1,1.1,1.1,0,0,1-.19-1.56,1.12,1.12,0,0,1,1.57-.19A89,89,0,0,0,288,221q-5.62-12.21-11.62-24.1a1.24,1.24,0,0,1-.27,0q-3.29-1.06-6.48-2.34a106.58,106.58,0,0,1-23.34-12.89,1.11,1.11,0,1,1,1.31-1.8A104.39,104.39,0,0,0,275,194.06c-3.66-7.21-7.38-14.33-11.1-21.34a101.6,101.6,0,0,1-18.54-10.39,1.12,1.12,0,0,1,1.29-1.82,98.91,98.91,0,0,0,15.54,9C258.07,161.9,254,154.4,250,147A1.11,1.11,0,0,1,250.45,145.53Z" transform="translate(-131.66 -62.44)"/><path class="cls-5" d="M207.25,297c-15.06-6.95-32.08-12.45-48.05-8-6.09,1.71-12.27,5.43-14.11,11.49-2.69,8.86,5.65,17.9,14.71,19.82s18.33-1,27.31-3.28,19-3.78,27.11.61c2.23,1.2,4.44,3.23,4.3,5.76-.19,3.47-4.32,5.06-7.71,5.82l-18.67,4.19c-5,1.12-11.14,3.49-11.38,8.62-.24,5.3,6.25,8.25,11.56,8.22,12.59-.07,23.52-8.16,35.25-12.72,10.93-4.26,21.66-4.51,33.14-3.89-3.89-8.49-13-13.31-20.5-18.27A247.09,247.09,0,0,0,207.25,297Z" transform="translate(-131.66 -62.44)"/><path class="cls-6" d="M258.76,226.34c-5.56-15.63-13.54-31.63-27.92-39.91-5.49-3.16-12.46-5-18.08-2.05-8.21,4.28-8.84,16.57-3.87,24.38s13.54,12.4,21.45,17.22,16,10.9,18.53,19.79c.7,2.44.79,5.44-1.11,7.11-2.61,2.29-6.64.45-9.55-1.44L222.16,241c-4.31-2.79-10.29-5.51-14.13-2.09s-1.52,10.24,2.21,14c8.87,8.95,22.29,11.1,33.76,16.29,10.69,4.83,18.37,12.32,26,21,3.34-8.72.4-18.62-1.29-27.43A246.58,246.58,0,0,0,258.76,226.34Z" transform="translate(-131.66 -62.44)"/><path class="cls-7" d="M194.92,418.85c-5.73-3.33-11-8-13.56-14.09s-2-13.83,2.62-18.59,12.05-5.83,16.35-10.81c9.52-11-3.28-31.21,6.81-41.72,4.56-4.75,12.11-5.26,17.25-9.37,6.44-5.15,7.53-14.49,6.92-22.71s-2.4-16.71.17-24.55,11.8-14.28,19-10.33c5.66,3.09,13.67,6.67,17,12.18s4.84,11.92,6.14,18.24c4.32,21,7,42.86,2.68,63.88s-16.8,41.26-36.17,50.51C225.75,418.39,210.92,418.75,194.92,418.85Z" transform="translate(-131.66 -62.44)"/><path class="cls-3" d="M503.32,331.46A143.83,143.83,0,0,1,634.37,221.89a141.32,141.32,0,0,1-45.6,73.86C566.2,315.06,532.92,329,503.32,331.46Z" transform="translate(-131.66 -62.44)"/><path class="cls-3" d="M625.39,230.19a1.12,1.12,0,0,0-1.55-.27c-9,6.39-18.3,12.94-27.61,19.68a89.59,89.59,0,0,1,8.2-17.1,1.12,1.12,0,0,0-1.9-1.17,91.59,91.59,0,0,0-9.42,20.54q-9.42,6.86-18.86,14a192,192,0,0,1,8.52-25.74,1.11,1.11,0,1,0-2.06-.85,194.58,194.58,0,0,0-9.3,28.77q-8.82,6.78-17.51,13.9a118.14,118.14,0,0,1,7.74-30.43,1.11,1.11,0,1,0-2.06-.83A120,120,0,0,0,551.42,284q-7.21,6-14.26,12.25a114.13,114.13,0,0,1,4-26.67,1.1,1.1,0,0,0-.78-1.37,1.12,1.12,0,0,0-1.37.77,117.13,117.13,0,0,0-4.18,29.31c-4.4,4-8.75,8-13,12.18.59-6.24,1.41-12.5,2.47-18.64a1.11,1.11,0,1,0-2.19-.38c-1.23,7.07-2.15,14.29-2.74,21.46a318,318,0,0,0-42.29,51,1.11,1.11,0,1,0,1.86,1.22,314.35,314.35,0,0,1,40.76-49.38,76.43,76.43,0,0,0,29.46.89,1.11,1.11,0,1,0-.36-2.2,74.26,74.26,0,0,1-27.2-.57q7.58-7.49,15.52-14.6A91.86,91.86,0,0,0,560,304a90.18,90.18,0,0,0,13.35.09,1.11,1.11,0,1,0-.15-2.22,90.29,90.29,0,0,1-34.1-4.35q8.4-7.47,17.07-14.55a91.22,91.22,0,0,0,39.71.53,1.12,1.12,0,0,0,.86-1.32,1.1,1.1,0,0,0-1.32-.86,89,89,0,0,1-37-.13q10.44-8.48,21.09-16.47a1.45,1.45,0,0,0,.25.09q3.4.5,6.84.76a106.21,106.21,0,0,0,26.64-1.23,1.11,1.11,0,1,0-.38-2.19,104.69,104.69,0,0,1-30.86.69q9.7-7.28,19.4-14.23a101.86,101.86,0,0,0,21.22-1.11,1.12,1.12,0,0,0,.92-1.28,1.1,1.1,0,0,0-1.27-.92,100.47,100.47,0,0,1-17.92,1.19c7-5,14-9.95,20.83-14.79A1.11,1.11,0,0,0,625.39,230.19Z" transform="translate(-131.66 -62.44)"/><path class="cls-4" d="M625.39,230.19a1.12,1.12,0,0,0-1.55-.27c-9,6.39-18.3,12.94-27.61,19.68a89.59,89.59,0,0,1,8.2-17.1,1.12,1.12,0,0,0-1.9-1.17,91.59,91.59,0,0,0-9.42,20.54q-9.42,6.86-18.86,14a192,192,0,0,1,8.52-25.74,1.11,1.11,0,1,0-2.06-.85,194.58,194.58,0,0,0-9.3,28.77q-8.82,6.78-17.51,13.9a118.14,118.14,0,0,1,7.74-30.43,1.11,1.11,0,1,0-2.06-.83A120,120,0,0,0,551.42,284q-7.21,6-14.26,12.25a114.13,114.13,0,0,1,4-26.67,1.1,1.1,0,0,0-.78-1.37,1.12,1.12,0,0,0-1.37.77,117.13,117.13,0,0,0-4.18,29.31c-4.4,4-8.75,8-13,12.18.59-6.24,1.41-12.5,2.47-18.64a1.11,1.11,0,1,0-2.19-.38c-1.23,7.07-2.15,14.29-2.74,21.46a318,318,0,0,0-42.29,51,1.11,1.11,0,1,0,1.86,1.22,314.35,314.35,0,0,1,40.76-49.38,76.43,76.43,0,0,0,29.46.89,1.11,1.11,0,1,0-.36-2.2,74.26,74.26,0,0,1-27.2-.57q7.58-7.49,15.52-14.6A91.86,91.86,0,0,0,560,304a90.18,90.18,0,0,0,13.35.09,1.11,1.11,0,1,0-.15-2.22,90.29,90.29,0,0,1-34.1-4.35q8.4-7.47,17.07-14.55a91.22,91.22,0,0,0,39.71.53,1.12,1.12,0,0,0,.86-1.32,1.1,1.1,0,0,0-1.32-.86,89,89,0,0,1-37-.13q10.44-8.48,21.09-16.47a1.45,1.45,0,0,0,.25.09q3.4.5,6.84.76a106.21,106.21,0,0,0,26.64-1.23,1.11,1.11,0,1,0-.38-2.19,104.69,104.69,0,0,1-30.86.69q9.7-7.28,19.4-14.23a101.86,101.86,0,0,0,21.22-1.11,1.12,1.12,0,0,0,.92-1.28,1.1,1.1,0,0,0-1.27-.92,100.47,100.47,0,0,1-17.92,1.19c7-5,14-9.95,20.83-14.79A1.11,1.11,0,0,0,625.39,230.19Z" transform="translate(-131.66 -62.44)"/><path class="cls-3" d="M282.68,395.3c-4.18-6.89-8.56-14-15.23-18.53s-16.33-5.72-22.53-.56c-5.29,4.41-7.16,12.49-13.36,15.5-9.88,4.79-22.54-6.95-32-1.35-9.88,5.86-4.9,24-14.72,29.93-6.94,4.21-15.9-1-23.93.2-7.8,1.15-13.85,9.27-12.72,17.07H290.06C296.29,422.09,291.32,409.57,282.68,395.3Z" transform="translate(-131.66 -62.44)"/><path class="cls-3" d="M531.29,321.91c-2.53,7.56,3.28,15.82,10.56,19.07s15.58,2.91,23.55,3,16.48.82,22.78,5.71c10,7.75,10.43,23.45,4.42,34.58s-16.76,18.75-27.15,26c-3.65-4.56-9.49-3.48-15.27-2.69s-11.53,2.73-17.33,2.08c-7.47-.83-14-6-17.92-12.35s-5.65-13.92-6.52-21.38a111,111,0,0,1,.9-31.88c.94-5.4,3.19-11.68,8.53-12.9,2.16-.5,4.42,0,6.64-.06S530.43,324,531.29,321.91Z" transform="translate(-131.66 -62.44)"/><path class="cls-8" d="M498.71,346.9c1.55-5.89,3.63-11.79,7.48-16.51s9.74-8.12,15.81-7.62c4.08.33,7.86,2.35,11.93,2.8,9.64,1.06,17.78-6.53,24.81-13.2,5.24-5,10.78-9.81,17.33-12.86s14.31-4.13,21-1.45c4.5,1.79,8.2,5.12,12.43,7.48s9.63,3.7,13.83,1.28c2.51-1.45,4,5.12,2,7.26s-5.09,2.64-7.61,4.07c-6.82,3.85-7.74,13-9.61,20.6-1,4.13-2.87,8.52-6.71,10.36-4.74,2.28-10.31-.23-15.58-.11-7,.16-13.09,5.07-17.48,10.58s-7.74,11.85-12.75,16.8a35.18,35.18,0,0,1-38.48,6.75C504.59,377.33,495.17,360.29,498.71,346.9Z" transform="translate(-131.66 -62.44)"/><path class="cls-9" d="M610.12,311.94a164.37,164.37,0,0,0-24.81,5.25,143.72,143.72,0,0,1,10.37-14,1.11,1.11,0,1,0-1.7-1.44,144.78,144.78,0,0,0-12,16.46,169.77,169.77,0,0,0-21.24,8.33A82.87,82.87,0,0,1,571.35,309a1.11,1.11,0,1,0-1.75-1.37A84.55,84.55,0,0,0,557.73,328a169.58,169.58,0,0,0-39.09,26.76,122.83,122.83,0,0,1,7.47-24.68,1.12,1.12,0,0,0-.59-1.46,1.11,1.11,0,0,0-1.46.59,125.55,125.55,0,0,0-8.14,28.11c-3.84,3.69-7.52,7.56-11,11.61a1.12,1.12,0,0,0,.12,1.57,1.15,1.15,0,0,0,.8.27,1.13,1.13,0,0,0,.78-.39,159.12,159.12,0,0,1,17-17.11h.09a283,283,0,0,1,42.79,0h.15a1.11,1.11,0,0,0,0-2.22,285.22,285.22,0,0,0-40.19-.15A167.27,167.27,0,0,1,551.23,334a1.16,1.16,0,0,0,.49.14,192.8,192.8,0,0,1,35,3.89,1,1,0,0,0,.29,0,1.12,1.12,0,0,0,.16-2.21A195,195,0,0,0,554.9,332c1.31-.69,2.62-1.36,4-2a1.19,1.19,0,0,0,.42-.21A167.45,167.45,0,0,1,575,322.94a1.2,1.2,0,0,0,.27.08,156,156,0,0,1,27.82,4.64,1.06,1.06,0,0,0,.35,0,1.12,1.12,0,0,0,.22-2.19A159.27,159.27,0,0,0,580,321.2c.88-.29,1.76-.58,2.64-.85h.13a1.15,1.15,0,0,0,.58-.24,162.27,162.27,0,0,1,27.1-6,1.11,1.11,0,1,0-.29-2.21Z" transform="translate(-131.66 -62.44)"/><path class="cls-4" d="M610.12,311.94a164.37,164.37,0,0,0-24.81,5.25,143.72,143.72,0,0,1,10.37-14,1.11,1.11,0,1,0-1.7-1.44,144.78,144.78,0,0,0-12,16.46,169.77,169.77,0,0,0-21.24,8.33A82.87,82.87,0,0,1,571.35,309a1.11,1.11,0,1,0-1.75-1.37A84.55,84.55,0,0,0,557.73,328a169.58,169.58,0,0,0-39.09,26.76,122.83,122.83,0,0,1,7.47-24.68,1.12,1.12,0,0,0-.59-1.46,1.11,1.11,0,0,0-1.46.59,125.55,125.55,0,0,0-8.14,28.11c-3.84,3.69-7.52,7.56-11,11.61a1.12,1.12,0,0,0,.12,1.57,1.15,1.15,0,0,0,.8.27,1.13,1.13,0,0,0,.78-.39,159.12,159.12,0,0,1,17-17.11h.09a283,283,0,0,1,42.79,0h.15a1.11,1.11,0,0,0,0-2.22,285.22,285.22,0,0,0-40.19-.15A167.27,167.27,0,0,1,551.23,334a1.16,1.16,0,0,0,.49.14,192.8,192.8,0,0,1,35,3.89,1,1,0,0,0,.29,0,1.12,1.12,0,0,0,.16-2.21A195,195,0,0,0,554.9,332c1.31-.69,2.62-1.36,4-2a1.19,1.19,0,0,0,.42-.21A167.45,167.45,0,0,1,575,322.94a1.2,1.2,0,0,0,.27.08,156,156,0,0,1,27.82,4.64,1.06,1.06,0,0,0,.35,0,1.12,1.12,0,0,0,.22-2.19A159.27,159.27,0,0,0,580,321.2c.88-.29,1.76-.58,2.64-.85h.13a1.15,1.15,0,0,0,.58-.24,162.27,162.27,0,0,1,27.1-6,1.11,1.11,0,1,0-.29-2.21Z" transform="translate(-131.66 -62.44)"/><path class="cls-10" d="M500.76,395.3c4.17-6.89,8.55-14,15.23-18.53s16.33-5.72,22.52-.56c5.3,4.41,7.16,12.49,13.37,15.5,9.88,4.79,22.54-6.95,32-1.35,9.88,5.86,4.91,24,14.73,29.93,6.94,4.21,15.89-1,23.93.2,7.79,1.15,13.85,9.27,12.72,17.07H493.38C487.15,422.09,492.12,409.57,500.76,395.3Z" transform="translate(-131.66 -62.44)"/><path class="cls-1" d="M549.14,178.54V407.26a35.7,35.7,0,0,0-35.7-35.71h-45V142.84h45A35.7,35.7,0,0,1,549.14,178.54Z" transform="translate(-131.66 -62.44)"/><path class="cls-11" d="M549.14,178.54V407.26a35.7,35.7,0,0,0-35.7-35.71h-45V142.84h45A35.7,35.7,0,0,1,549.14,178.54Z" transform="translate(-131.66 -62.44)"/><path class="cls-11" d="M513.44,191.1h-45V371.55h45a35.72,35.72,0,0,1,33.77,24.13,35.48,35.48,0,0,0,1.93-11.58V178.54A35.46,35.46,0,0,0,547.21,167,35.72,35.72,0,0,1,513.44,191.1Z" transform="translate(-131.66 -62.44)"/><path class="cls-12" d="M549.14,401.85V178.54c0,19.73-19,30.31-35.7,30.31H256.66V437.56H513.44A35.7,35.7,0,0,0,549.14,401.85Z" transform="translate(-131.66 -62.44)"/><path d="M430.13,75.29H367.62A25.62,25.62,0,0,0,342,100.91v62.52a25.62,25.62,0,0,0,25.62,25.62h13.83l17.43,13.31,17.42-13.31h13.83a25.62,25.62,0,0,0,25.63-25.62V100.91A25.62,25.62,0,0,0,430.13,75.29Z" transform="translate(-131.66 -62.44)"/><path class="cls-11" d="M256.66,368.23h.65a25.62,25.62,0,0,0,25.62-25.62V328.77l13.31-17.42-13.31-17.42V280.09a25.62,25.62,0,0,0-25.62-25.62h-.65Z" transform="translate(-131.66 -62.44)"/><text class="cls-13" transform="translate(139.23 188.45)"><tspan xml:space="preserve">        N</tspan><tspan class="cls-14" x="103.56" y="0">E</tspan><tspan class="cls-15" x="125.85" y="0">W</tspan><tspan x="164.55" y="0">S</tspan></text><rect class="cls-11" x="139.23" y="204.66" width="153.2" height="74"/><rect class="cls-11" x="139.23" y="289.66" width="153.2" height="10.25" rx="5.13"/><path class="cls-11" d="M419,383.6H276a5.12,5.12,0,0,1-5.12-5.12h0a5.13,5.13,0,0,1,5.12-5.13H419a5.13,5.13,0,0,1,5.12,5.13h0A5.12,5.12,0,0,1,419,383.6Z" transform="translate(-131.66 -62.44)"/><path class="cls-11" d="M419,404.85H276a5.12,5.12,0,0,1-5.12-5.12h0A5.13,5.13,0,0,1,276,394.6H419a5.13,5.13,0,0,1,5.12,5.13h0A5.12,5.12,0,0,1,419,404.85Z" transform="translate(-131.66 -62.44)"/><path class="cls-11" d="M419,426.1H276A5.12,5.12,0,0,1,270.9,421h0a5.13,5.13,0,0,1,5.12-5.13H419a5.13,5.13,0,0,1,5.12,5.13h0A5.12,5.12,0,0,1,419,426.1Z" transform="translate(-131.66 -62.44)"/><rect class="cls-11" x="311.01" y="289.66" width="79.16" height="10.25" rx="5.13"/><path class="cls-11" d="M516.71,383.6H447.8a5.13,5.13,0,0,1-5.13-5.12h0a5.13,5.13,0,0,1,5.13-5.13h68.91a5.13,5.13,0,0,1,5.12,5.13h0A5.12,5.12,0,0,1,516.71,383.6Z" transform="translate(-131.66 -62.44)"/><path class="cls-11" d="M516.71,404.85H447.8a5.13,5.13,0,0,1-5.13-5.12h0a5.13,5.13,0,0,1,5.13-5.13h68.91a5.13,5.13,0,0,1,5.12,5.13h0A5.12,5.12,0,0,1,516.71,404.85Z" transform="translate(-131.66 -62.44)"/><path class="cls-11" d="M516.71,426.1H447.8a5.13,5.13,0,0,1-5.13-5.12h0a5.13,5.13,0,0,1,5.13-5.13h68.91a5.13,5.13,0,0,1,5.12,5.13h0A5.12,5.12,0,0,1,516.71,426.1Z" transform="translate(-131.66 -62.44)"/><path class="cls-11" d="M516.71,277.35H447.8a5.13,5.13,0,0,1-5.13-5.12h0a5.13,5.13,0,0,1,5.13-5.13h68.91a5.12,5.12,0,0,1,5.12,5.13h0A5.12,5.12,0,0,1,516.71,277.35Z" transform="translate(-131.66 -62.44)"/><path class="cls-11" d="M516.71,298.6H447.8a5.13,5.13,0,0,1-5.13-5.12h0a5.13,5.13,0,0,1,5.13-5.13h68.91a5.13,5.13,0,0,1,5.12,5.13h0A5.12,5.12,0,0,1,516.71,298.6Z" transform="translate(-131.66 -62.44)"/><path class="cls-11" d="M516.71,319.85H447.8a5.13,5.13,0,0,1-5.13-5.12h0a5.13,5.13,0,0,1,5.13-5.13h68.91a5.13,5.13,0,0,1,5.12,5.13h0A5.12,5.12,0,0,1,516.71,319.85Z" transform="translate(-131.66 -62.44)"/><path class="cls-11" d="M516.71,341.1H447.8a5.13,5.13,0,0,1-5.13-5.12h0a5.13,5.13,0,0,1,5.13-5.13h68.91a5.13,5.13,0,0,1,5.12,5.13h0A5.12,5.12,0,0,1,516.71,341.1Z" transform="translate(-131.66 -62.44)"/><path class="cls-16" d="M151.33,176.34" transform="translate(-131.66 -62.44)"/><path class="cls-17" d="M152.8,171h.11" transform="translate(-131.66 -62.44)"/><path d="M153.34,274.09v62.52A25.63,25.63,0,0,0,179,362.23h62.51a25.62,25.62,0,0,0,25.63-25.62V322.77l13.31-17.42-13.31-17.42V274.09a25.62,25.62,0,0,0-25.63-25.62H179A25.63,25.63,0,0,0,153.34,274.09Z" transform="translate(-131.66 -62.44)"/><path class="cls-18" d="M436.85,175.13H362.72a4,4,0,0,1-4-4h0a4,4,0,0,1,4-4h74.13a4,4,0,0,1,4,4h0A4,4,0,0,1,436.85,175.13Z" transform="translate(-131.66 -62.44)"/><path class="cls-18" d="M436.85,156.67H362.72a4,4,0,0,1-4-4h0a4,4,0,0,1,4-4h74.13a4,4,0,0,1,4,4h0A4,4,0,0,1,436.85,156.67Z" transform="translate(-131.66 -62.44)"/><path class="cls-18" d="M436.85,138.22H362.72a4,4,0,0,1-4-4h0a4,4,0,0,1,4-4h74.13a4,4,0,0,1,4,4h0A4,4,0,0,1,436.85,138.22Z" transform="translate(-131.66 -62.44)"/><path class="cls-18" d="M436.85,119.77H362.72a4,4,0,0,1-4-4h0a4,4,0,0,1,4-4h74.13a4,4,0,0,1,4,4h0A4,4,0,0,1,436.85,119.77Z" transform="translate(-131.66 -62.44)"/><path class="cls-18" d="M436.85,101.31H362.72a4,4,0,0,1-4-4h0a4,4,0,0,1,4-4h74.13a4,4,0,0,1,4,4h0A4,4,0,0,1,436.85,101.31Z" transform="translate(-131.66 -62.44)"/><path class="cls-19" d="M248.69,346.25H174.57a4,4,0,0,1-4-4h0a4,4,0,0,1,4-4h74.12a4,4,0,0,1,4,4h0A4,4,0,0,1,248.69,346.25Z" transform="translate(-131.66 -62.44)"/><path class="cls-19" d="M248.69,327.79H174.57a4,4,0,0,1-4-4h0a4,4,0,0,1,4-4h74.12a4,4,0,0,1,4,4h0A4,4,0,0,1,248.69,327.79Z" transform="translate(-131.66 -62.44)"/><path class="cls-19" d="M248.69,309.34H174.57a4,4,0,0,1-4-4h0a4,4,0,0,1,4-4h74.12a4,4,0,0,1,4,4h0A4,4,0,0,1,248.69,309.34Z" transform="translate(-131.66 -62.44)"/><path class="cls-19" d="M248.69,290.89H174.57a4,4,0,0,1-4-4h0a4,4,0,0,1,4-4h74.12a4,4,0,0,1,4,4h0A4,4,0,0,1,248.69,290.89Z" transform="translate(-131.66 -62.44)"/><path class="cls-19" d="M248.69,272.43H174.57a4,4,0,0,1-4-4h0a4,4,0,0,1,4-4h74.12a4,4,0,0,1,4,4h0A4,4,0,0,1,248.69,272.43Z" transform="translate(-131.66 -62.44)"/><path class="cls-19" d="M297.72,421.83h-29a23.55,23.55,0,0,1-23.52-23.52v-5a23.55,23.55,0,0,1,23.52-23.52h29Zm-29-44.47a16,16,0,0,0-16,16v5a16,16,0,0,0,16,16h21.45V377.36Z" transform="translate(-131.66 -62.44)"/><g class="cls-20"><path d="M297.72,421.83h-29a23.55,23.55,0,0,1-23.52-23.52v-5a23.55,23.55,0,0,1,23.52-23.52h29Zm-29-44.47a16,16,0,0,0-16,16v5a16,16,0,0,0,16,16h21.45V377.36Z" transform="translate(-131.66 -62.44)"/></g><path class="cls-11" d="M268.82,377.36h21.37V414.3H272.52a39.92,39.92,0,0,0,4.55,7.53h20.65v-52h-28.9Z" transform="translate(-131.66 -62.44)"/><path class="cls-19" d="M143.23,303H233.4a0,0,0,0,1,0,0v32.07a40.06,40.06,0,0,1-40.06,40.06h-10a40.06,40.06,0,0,1-40.06-40.06V303A0,0,0,0,1,143.23,303Z"/><path class="cls-21" d="M352.89,370.43V397.5a35.1,35.1,0,0,1-35.06,35.06H325a35.09,35.09,0,0,0,35.06-35.06V370.43Z" transform="translate(-131.66 -62.44)"/><path class="cls-11" d="M298.81,397.5V365.44H274.9V397.5A40.05,40.05,0,0,0,315,437.56h10a39.72,39.72,0,0,0,6.94-.61A40.06,40.06,0,0,1,298.81,397.5Z" transform="translate(-131.66 -62.44)"/><path class="cls-19" d="M373.91,427.56H261.75a10,10,0,0,0,10,10h92.16a10,10,0,0,0,10-10Z" transform="translate(-131.66 -62.44)"/><path class="cls-22" d="M373.91,427.56H261.75a10,10,0,0,0,10,10h92.16a10,10,0,0,0,10-10Z" transform="translate(-131.66 -62.44)"/></g></svg>