<svg xmlns="http://www.w3.org/2000/svg" xmlns:xlink="http://www.w3.org/1999/xlink" viewBox="0 0 581.03 330.65"><defs><style>.cls-1,.cls-12,.cls-19{fill:none;}.cls-2{fill:#cddbf0;}.cls-3{fill:#7ba859;}.cls-4{fill:#6f4c61;}.cls-5{fill:#fffdff;}.cls-6{fill:#e7e6e9;}.cls-7{fill:#81a6d9;}.cls-8{fill:#ffc672;}.cls-9{fill:#898192;}.cls-10{fill:#545172;}.cls-11{clip-path:url(#clip-path);}.cls-12{stroke:#fffdff;stroke-width:9.33px;}.cls-12,.cls-19{stroke-linecap:round;stroke-miterlimit:10;}.cls-13{fill:#2d2b4d;}.cls-14{fill:#3c3966;}.cls-15{fill:#e58c7e;}.cls-16{fill:#bbb9c7;}.cls-17{fill:#477a9b;}.cls-18{fill:#355c74;}.cls-19{stroke:#545172;stroke-width:4px;}</style><clipPath id="clip-path" transform="translate(-84.49 -85.27)"><circle class="cls-1" cx="364.39" cy="266.67" r="64.5" transform="translate(-81.84 335.77) rotate(-45)"/></clipPath></defs><title>IRL</title><g id="OBJECTS"><path class="cls-2" d="M149.31,406.09H557.59a131,131,0,0,0-63.65-245.46c-1.45,0-2.89,0-4.33.08A172.3,172.3,0,0,0,190,230.32a104.4,104.4,0,0,0-40.67,175.77Z" transform="translate(-84.49 -85.27)"/><path class="cls-3" d="M598.56,377.75a27.54,27.54,0,0,0-4.09.3,19.74,19.74,0,0,0-12.66-34.88,20.06,20.06,0,0,0-3.21.29,23.3,23.3,0,0,0-20.09-33.18,14.09,14.09,0,0,0,.66-4.28,14.28,14.28,0,0,0-11.56-14c0-.23,0-.46,0-.69a17,17,0,0,0-17-17h-.07c.08-.89.13-1.79.13-2.7a28.42,28.42,0,0,0-39.76-26,39.48,39.48,0,0,0-54.65-7.32,63.46,63.46,0,0,0-114.89-13.88,61.14,61.14,0,0,0-99.64,43.81c-.42,0-.85-.07-1.28-.07a17.38,17.38,0,0,0-17.37,17.38,17.7,17.7,0,0,0,.37,3.59,19.56,19.56,0,0,0-18,24.34,19.21,19.21,0,0,0-8.23,29.41,19.8,19.8,0,0,0-16.5,19.51c0,.2,0,.39,0,.58a8.6,8.6,0,0,0-10.15,8.49,8.06,8.06,0,0,0,0,.85,37.69,37.69,0,0,0-26.95,41.28H625.46a28,28,0,0,0-26.9-35.74Z" transform="translate(-84.49 -85.27)"/><path class="cls-4" d="M493.86,406.81l-7.22,4.83c-.9.61-.4,1.85.75,1.85h21.46L506,401.65Z" transform="translate(-84.49 -85.27)"/><rect class="cls-5" x="126.59" y="67.71" width="290.88" height="213.76"/><path class="cls-6" d="M454.82,308.33h-44a10.76,10.76,0,0,1-10.76-10.76h0a10.76,10.76,0,0,1,10.76-10.76h44a10.76,10.76,0,0,1,10.76,10.76h0A10.76,10.76,0,0,1,454.82,308.33Z" transform="translate(-84.49 -85.27)"/><path class="cls-7" d="M330.83,325.32a14.89,14.89,0,0,0-28.56,4.9h0a7.93,7.93,0,1,0,0,15.85h28.16a10.38,10.38,0,0,0,.45-20.75Z" transform="translate(-84.49 -85.27)"/><path class="cls-8" d="M395,192.82V172a1.07,1.07,0,0,1,1.08-1.07h16.47a1.48,1.48,0,0,0,1-.43l4.25-4.25a1.46,1.46,0,0,1,1-.43h8.94a1.08,1.08,0,0,1,1.08,1.08v25.89a1.08,1.08,0,0,1-1.08,1.08H396.09A1.08,1.08,0,0,1,395,192.82Z" transform="translate(-84.49 -85.27)"/><rect class="cls-6" x="147.35" y="85.21" width="41.99" height="54.5"/><rect class="cls-9" x="155.38" y="90.88" width="16.67" height="2.5"/><rect class="cls-9" x="155.38" y="99" width="24.46" height="2.5"/><rect class="cls-9" x="155.38" y="107.15" width="16.67" height="2.5"/><rect class="cls-9" x="155.38" y="115.28" width="24.46" height="2.5"/><rect class="cls-9" x="155.38" y="123.4" width="16.67" height="2.5"/><rect class="cls-9" x="155.38" y="131.53" width="24.46" height="2.5"/><rect class="cls-6" x="319.84" y="90.53" width="69.53" height="90.24"/><rect class="cls-9" x="333.14" y="99.91" width="27.6" height="4.14"/><rect class="cls-9" x="333.14" y="113.36" width="40.5" height="4.14"/><rect class="cls-9" x="333.14" y="126.85" width="27.6" height="4.14"/><rect class="cls-9" x="333.14" y="140.3" width="40.5" height="4.14"/><rect class="cls-9" x="333.14" y="153.75" width="27.6" height="4.14"/><rect class="cls-9" x="333.14" y="167.21" width="40.5" height="4.14"/><path class="cls-8" d="M249.83,251.71v-47.1a2.43,2.43,0,0,1,2.43-2.44h37.32a3.31,3.31,0,0,0,2.34-1l9.62-9.62a3.35,3.35,0,0,1,2.35-1h20.25a2.43,2.43,0,0,1,2.44,2.43v58.67a2.44,2.44,0,0,1-2.44,2.44H252.26A2.43,2.43,0,0,1,249.83,251.71Z" transform="translate(-84.49 -85.27)"/><path class="cls-8" d="M231.84,335.3V314.51a1.07,1.07,0,0,1,1.07-1.07h16.47a1.5,1.5,0,0,0,1-.43l4.24-4.25a1.5,1.5,0,0,1,1-.43h8.94a1.07,1.07,0,0,1,1.07,1.08V335.3a1.07,1.07,0,0,1-1.07,1.08H232.91A1.07,1.07,0,0,1,231.84,335.3Z" transform="translate(-84.49 -85.27)"/><path class="cls-10" d="M480.05,409.63h0a17.33,17.33,0,0,1-24.38-2.58L380,313.53,407,291.73l75.67,93.52A17.34,17.34,0,0,1,480.05,409.63Z" transform="translate(-84.49 -85.27)"/><rect class="cls-9" x="389.9" y="297.76" width="34.66" height="43.75" transform="translate(-194.89 242.02) rotate(-38.98)"/><circle class="cls-10" cx="279.9" cy="181.4" r="76.5"/><circle class="cls-2" cx="364.39" cy="266.67" r="64.5" transform="translate(-166.33 250.5) rotate(-45)"/><g class="cls-11"><path class="cls-8" d="M249.83,258.24V200.65a3,3,0,0,1,3-3h45.61a4,4,0,0,0,2.87-1.18l11.76-11.76a4.05,4.05,0,0,1,2.86-1.19h24.76a3,3,0,0,1,3,3v71.72a3,3,0,0,1-3,3H252.81A3,3,0,0,1,249.83,258.24Z" transform="translate(-84.49 -85.27)"/><rect class="cls-6" x="295.52" y="80.59" width="84.43" height="109.58"/><rect class="cls-9" x="311.66" y="91.98" width="33.51" height="5.03"/><rect class="cls-9" x="311.66" y="108.32" width="49.18" height="5.03"/><rect class="cls-9" x="311.66" y="124.69" width="33.51" height="5.03"/><rect class="cls-9" x="311.66" y="141.03" width="49.18" height="5.03"/><rect class="cls-9" x="311.66" y="157.37" width="33.51" height="5.03"/><rect class="cls-9" x="311.66" y="173.7" width="49.18" height="5.03"/><path class="cls-8" d="M330.59,305.1V270.23a1.81,1.81,0,0,1,1.8-1.81H360a2.45,2.45,0,0,0,1.73-.72l7.12-7.12a2.47,2.47,0,0,1,1.74-.72h15a1.81,1.81,0,0,1,1.81,1.81V305.1a1.81,1.81,0,0,1-1.81,1.8H332.39A1.81,1.81,0,0,1,330.59,305.1Z" transform="translate(-84.49 -85.27)"/><path class="cls-7" d="M349,305.08a25.8,25.8,0,0,0-49.48,8.5h-.09a13.74,13.74,0,1,0,0,27.48h48.8a18,18,0,0,0,.77-36Z" transform="translate(-84.49 -85.27)"/><path class="cls-6" d="M449.88,313.27H385.74a15.7,15.7,0,0,1-15.7-15.7h0a15.7,15.7,0,0,1,15.7-15.69h64.14a15.7,15.7,0,0,1,15.7,15.69h0A15.7,15.7,0,0,1,449.88,313.27Z" transform="translate(-84.49 -85.27)"/></g><path class="cls-12" d="M364.39,212.8a54.07,54.07,0,0,1,5.65.31" transform="translate(-84.49 -85.27)"/><path class="cls-12" d="M310.82,261a53.89,53.89,0,0,1,34.57-44.77" transform="translate(-84.49 -85.27)"/><path class="cls-12" d="M369.72,320.28a54.58,54.58,0,0,1-11,0" transform="translate(-84.49 -85.27)"/><path class="cls-12" d="M418,272.32A53.85,53.85,0,0,1,383,317.23" transform="translate(-84.49 -85.27)"/><path class="cls-13" d="M506.41,357.31s-23.61,9.15-24.67,12S494.08,408,494.08,408h9.5l-8.05-27.24,21.55-12.26Z" transform="translate(-84.49 -85.27)"/><path class="cls-14" d="M506.41,357.31s-20.67,43.17-20.67,48.17,45.84,1.83,45.84,1.83V397.15l-25.9-1.5s20.4-16.84,24.73-25.5-1-22.34-9.33-23.67S506.41,357.31,506.41,357.31Z" transform="translate(-84.49 -85.27)"/><path class="cls-15" d="M295.58,279.24s-1.25-4.5-1.67-6.83,1.08-6.59,3.25-7.5,5.67,1.25,7,3.41,1.75,10.92,1.75,10.92Z" transform="translate(-84.49 -85.27)"/><path class="cls-13" d="M260.43,404.74v8.42h33.29a6.89,6.89,0,0,0-5.65-6.78l-9-1.64Z" transform="translate(-84.49 -85.27)"/><polygon class="cls-13" points="168.34 229.39 176.09 319.47 192.59 319.47 188.59 229.39 168.34 229.39"/><path class="cls-14" d="M286,316.74l16.13,88H283.41s-19.67-59.33-23-70.67a131.15,131.15,0,0,1-4.33-21.66Z" transform="translate(-84.49 -85.27)"/><path class="cls-15" d="M273.83,266.66l11.75-21.13,20.16-1v6.75s2.34,4.09,2.34,4.92-3,2.55-3,2.55-2.27,8.28-6,9.62-8.13-2.5-8.13-2.5l-5,6.5Z" transform="translate(-84.49 -85.27)"/><path class="cls-14" d="M292.49,256.74s4.59-2.83,8.17-5.42a34.62,34.62,0,0,0,5.08-4.25s6.25-2.33,6.5-5.75-5.5-5.83-12-6-12.33.75-15.33,2.5-3.83,3.17-3.83,3.17-6.75,2.33-6.75,7.92S278.09,259,278.09,259l7.49.41S287.24,252.91,292.49,256.74Z" transform="translate(-84.49 -85.27)"/><path class="cls-6" d="M286,272.41a56.93,56.93,0,0,1,1.79,10.33c.34,5.17-.33,21.67,0,24.83s3.42,10.34-1.79,11.5-29.37.34-31.71,0-7.83-5.16-4.33-9.66,10.17-29.67,13.5-35.34,10.42-7.41,10.42-7.41Z" transform="translate(-84.49 -85.27)"/><path class="cls-16" d="M272.24,295.74,289,314.92c0-2.53-1-5.57-1.21-7.35-.09-.92-.11-3-.08-5.55Z" transform="translate(-84.49 -85.27)"/><path class="cls-13" d="M283.41,404.74v8.42H316.7a6.89,6.89,0,0,0-5.65-6.78l-9-1.64Z" transform="translate(-84.49 -85.27)"/><path class="cls-6" d="M277.08,277.24l19.16,17-.66-15h10.33s2.8,26-1.58,30.41c-5.75,5.76-32.09-13.91-32.09-13.91Z" transform="translate(-84.49 -85.27)"/><path class="cls-15" d="M491.45,327.61l6.75-5.25-2-14.88L482,302.86a13.19,13.19,0,0,0-2.12,3.45,9.69,9.69,0,0,0-.59,2.92s-3.25,2.5-3.5,3.33,2.21,2.25,2.21,2.25,1.29,6.75,2.13,7.34,6.58,0,8,.75S491.45,327.61,491.45,327.61Z" transform="translate(-84.49 -85.27)"/><path class="cls-17" d="M509.41,325.65s6.5,7.5,10.33,10.33,1.34,10.5,1.34,10.5l-14.67,10.83a131.71,131.71,0,0,0-13.67-11c-6.5-4.33-1.29-18.7-1.29-18.7l6.75-5.25Z" transform="translate(-84.49 -85.27)"/><path class="cls-18" d="M493.54,346.86c1.93,1.33,3.87,2.81,5.65,4.25a64.64,64.64,0,0,0,2.09-13.62l-7.74,9.37Z" transform="translate(-84.49 -85.27)"/><path class="cls-4" d="M492.08,318.86s3.75,10.37,14.5,10.25,16.25-10.25,16.25-11.5-7.21-1.2-12.75-6.5S499.45,296,490,296s-8.85,8-8.85,8l1-.57a14.8,14.8,0,0,0,3.91,4.25,25.3,25.3,0,0,0,4.75,2.16v3.59s2.75-2.84,3.92-1.25.74,6.06-2.92,6.9" transform="translate(-84.49 -85.27)"/><path class="cls-4" d="M531.58,397.15s7.87-1.42,8.75-.79,6.62,15.5,7,17-18.88,1.37-18.88,1.37a5.78,5.78,0,0,1,1.63-3.87,37.53,37.53,0,0,1,5.1-3.51l-3.6,0Z" transform="translate(-84.49 -85.27)"/><path class="cls-15" d="M463.08,356.48s-8-1.87-9-.87,3,3.37,3,3.37-10.38,1.75-10.75,3.38,7.25,0,7.25,0-5.5,2-5.75,2.87,2.12,3,4.75,2.88,12.12-3.5,12.12-3.5,13.63-3,20.38-6.75,13.75-12.38,15.5-17.38.81-11.22-4.38-11.37-10.09,15-15.11,19S463.08,356.48,463.08,356.48Z" transform="translate(-84.49 -85.27)"/><path class="cls-5" d="M190.41,255.18a14.85,14.85,0,0,0-28.49,4.89h0a7.91,7.91,0,0,0,0,15.82H190a10.35,10.35,0,0,0,.45-20.7Z" transform="translate(-84.49 -85.27)"/><path class="cls-5" d="M536.16,215.05a12.52,12.52,0,0,1,24,4.12h0a6.67,6.67,0,0,1,0,13.33H536.54a8.72,8.72,0,0,1-.38-17.44Z" transform="translate(-84.49 -85.27)"/><path class="cls-5" d="M363.83,121.59a12.51,12.51,0,0,1,24,4.11h0a6.67,6.67,0,0,1,0,13.33H364.2a8.72,8.72,0,0,1-.37-17.44Z" transform="translate(-84.49 -85.27)"/><line class="cls-19" x1="2" y1="328.65" x2="579.03" y2="328.65"/><circle class="cls-2" cx="168.35" cy="32.43" r="3.71"/><path class="cls-2" d="M630.27,216.26a3.72,3.72,0,1,1-3.72-3.72A3.71,3.71,0,0,1,630.27,216.26Z" transform="translate(-84.49 -85.27)"/><path class="cls-2" d="M415.66,89A3.71,3.71,0,1,1,412,85.27,3.71,3.71,0,0,1,415.66,89Z" transform="translate(-84.49 -85.27)"/><path class="cls-2" d="M101.74,357.31A3.71,3.71,0,1,1,98,353.6,3.72,3.72,0,0,1,101.74,357.31Z" transform="translate(-84.49 -85.27)"/><path class="cls-2" d="M630.27,363.41a3.72,3.72,0,1,1-3.72-3.71A3.71,3.71,0,0,1,630.27,363.41Z" transform="translate(-84.49 -85.27)"/><circle class="cls-2" cx="83.59" cy="121.53" r="5"/><circle class="cls-2" cx="462.85" cy="67.71" r="5"/></g></svg>